{"glyphs":{"0":{"ha":864,"x_min":118,"x_max":746,"o":"m 652 67 q 605 24 652 67 q 432 -18 558 -18 q 212 67 306 -18 q 118 290 118 151 l 118 682 q 212 906 118 821 q 432 990 306 990 q 652 906 558 990 q 746 682 746 821 l 746 290 q 652 67 746 151 m 286 148 q 315 118 286 148 q 432 89 343 89 q 578 148 521 89 q 635 297 635 207 l 635 675 q 577 824 635 764 q 432 883 519 883 q 287 824 344 883 q 229 675 229 764 l 229 297 q 286 148 229 207 z "},"1":{"ha":733,"x_min":125,"x_max":657,"o":"m 164 0 l 164 103 l 361 103 l 361 869 l 353 869 l 125 751 l 125 861 l 340 972 l 474 972 l 474 103 l 657 103 l 657 0 l 164 0 z "},"2":{"ha":814,"x_min":111,"x_max":703,"o":"m 113 0 l 113 143 l 501 546 q 579 713 579 628 q 530 836 579 788 q 397 885 481 885 q 267 833 317 885 q 217 706 217 782 l 111 706 q 188 903 111 817 q 400 990 265 990 q 614 909 533 990 q 694 715 694 828 q 669 596 694 647 q 596 490 644 544 l 215 111 l 215 103 l 703 103 l 703 0 l 113 0 z "},"3":{"ha":833,"x_min":111,"x_max":722,"o":"m 406 -17 q 189 72 267 -17 q 111 268 111 161 l 217 268 q 270 140 219 190 q 403 89 321 89 q 551 148 496 89 q 607 294 607 207 q 551 439 607 381 q 401 497 494 497 l 303 497 l 303 621 l 596 861 l 596 869 l 133 869 l 133 972 l 699 972 l 699 822 l 424 603 l 424 594 l 432 594 q 564 565 506 594 q 656 488 622 535 q 706 392 689 442 q 722 297 722 343 q 637 74 722 164 q 406 -17 551 -17 z "},"4":{"ha":871,"x_min":90,"x_max":781,"o":"m 542 0 l 542 246 l 90 246 l 90 376 l 483 972 l 653 972 l 653 346 l 781 346 l 781 246 l 653 246 l 653 0 l 542 0 m 193 346 l 542 346 l 542 869 l 533 869 l 193 354 l 193 346 z "},"5":{"ha":829,"x_min":104,"x_max":718,"o":"m 408 -18 q 195 53 281 -18 q 104 253 110 125 l 210 253 q 271 128 219 171 q 404 86 322 86 q 548 145 492 86 q 604 294 604 204 q 549 447 604 388 q 396 506 493 506 q 331 496 361 506 q 281 472 300 486 q 248 444 263 458 q 228 419 233 429 l 221 410 l 124 410 l 157 972 l 661 972 l 661 869 l 256 869 l 235 543 l 243 543 q 263 561 250 550 q 319 590 275 572 q 413 608 363 608 q 633 517 549 608 q 718 294 718 426 q 631 69 718 157 q 408 -18 543 -18 z "},"6":{"ha":858,"x_min":111,"x_max":747,"o":"m 654 75 q 608 28 654 75 q 428 -18 561 -18 q 203 74 294 -18 q 111 303 111 167 q 161 483 111 393 l 428 972 l 556 972 l 346 610 l 351 604 q 433 621 389 621 q 657 530 567 621 q 747 303 747 439 q 654 75 747 168 m 282 149 q 310 118 282 149 q 428 88 339 88 q 574 149 517 88 q 632 303 632 211 q 574 456 632 393 q 428 519 517 519 q 283 456 340 519 q 225 303 225 393 q 282 149 225 211 z "},"7":{"ha":771,"x_min":90,"x_max":688,"o":"m 225 0 l 585 861 l 585 869 l 194 869 l 194 767 l 90 767 l 90 972 l 688 972 l 688 835 l 344 0 l 225 0 z "},"8":{"ha":858,"x_min":111,"x_max":747,"o":"m 659 63 q 615 22 659 63 q 429 -18 571 -18 q 199 63 288 -18 q 111 272 111 143 q 161 427 111 363 q 268 515 211 492 l 268 524 q 188 601 222 547 q 153 731 153 656 q 233 917 153 844 q 429 990 313 990 q 625 917 544 990 q 706 731 706 844 q 671 601 706 656 q 590 524 636 547 l 590 515 q 697 427 647 492 q 747 272 747 363 q 659 63 747 143 m 311 612 q 333 589 311 612 q 429 565 356 565 q 547 612 503 565 q 592 726 592 658 q 547 840 592 794 q 429 886 503 886 q 311 840 356 886 q 267 726 267 794 q 311 612 267 658 m 281 140 q 308 112 281 140 q 429 85 335 85 q 578 140 524 85 q 632 272 632 194 q 574 411 632 360 q 429 463 517 463 q 284 411 342 463 q 226 272 226 360 q 281 140 226 194 z "},"9":{"ha":858,"x_min":111,"x_max":747,"o":"m 303 0 l 513 363 l 507 368 q 425 351 469 351 q 201 442 292 351 q 111 669 111 533 q 204 897 111 804 q 431 990 297 990 q 656 898 564 990 q 747 669 747 806 q 697 489 747 579 l 431 0 l 303 0 m 431 453 q 576 516 518 453 q 633 669 633 579 q 576 823 633 761 q 431 885 519 885 q 284 823 342 885 q 226 669 226 761 q 284 516 226 579 q 431 453 342 453 z "},"\u0000":{"ha":0,"x_min":0,"x_max":0,"o":""},"\r":{"ha":0,"x_min":0,"x_max":0,"o":""}," ":{"ha":389,"x_min":0,"x_max":0,"o":""},"!":{"ha":435,"x_min":139,"x_max":296,"o":"m 169 244 l 160 972 l 275 972 l 265 244 l 169 244 m 273 5 q 261 -7 273 5 q 218 -18 250 -18 q 163 5 186 -18 q 139 60 139 28 q 163 115 139 92 q 218 138 186 138 q 273 115 250 138 q 296 60 296 92 q 273 5 296 28 z "},"\"":{"ha":503,"x_min":111,"x_max":392,"o":"m 119 697 l 111 972 l 208 972 l 200 697 l 119 697 m 301 697 l 294 972 l 392 972 l 383 697 l 301 697 z "},"#":{"ha":982,"x_min":83,"x_max":899,"o":"m 189 0 l 244 267 l 83 267 l 101 357 l 263 357 l 317 614 l 157 614 l 174 704 l 336 704 l 392 972 l 490 972 l 436 704 l 636 704 l 692 972 l 790 972 l 736 704 l 899 704 l 882 614 l 717 614 l 664 357 l 828 357 l 810 267 l 644 267 l 589 0 l 490 0 l 544 267 l 343 267 l 288 0 l 189 0 m 363 357 l 564 357 l 618 614 l 417 614 l 363 357 z "},"$":{"ha":817,"x_min":63,"x_max":747,"o":"m 747 257 q 668 71 747 147 q 453 -17 589 -6 l 453 -118 l 360 -118 l 360 -15 q 147 83 231 0 q 63 289 63 167 l 175 289 q 225 159 175 214 q 360 90 275 104 l 360 460 q 260 490 299 475 q 180 535 222 506 q 117 613 138 564 q 96 731 96 663 q 167 902 96 829 q 360 988 238 975 l 360 1064 l 453 1064 l 453 988 q 647 905 567 975 q 726 708 726 835 l 611 708 q 570 828 611 782 q 453 885 529 874 l 453 549 q 540 524 507 535 q 617 490 572 513 q 686 439 661 467 q 729 364 711 411 q 747 257 747 317 m 208 731 q 247 631 208 667 q 360 574 286 596 l 360 885 q 247 831 285 874 q 208 731 208 788 m 453 88 q 584 140 535 97 q 633 250 633 183 q 587 371 633 331 q 453 436 540 411 l 453 88 z "},"%":{"ha":1133,"x_min":97,"x_max":1036,"o":"m 311 565 q 158 626 219 565 q 97 776 97 688 q 158 928 97 865 q 310 990 219 990 q 467 928 404 990 q 529 776 529 867 q 467 626 529 688 q 311 565 404 565 m 140 0 l 881 972 l 994 972 l 253 0 l 140 0 m 313 651 q 401 688 368 651 q 435 776 435 724 q 400 867 435 831 q 311 904 365 904 q 224 867 258 904 q 190 776 190 831 q 225 688 190 724 q 313 651 260 651 m 819 -18 q 665 42 726 -18 q 604 193 604 103 q 665 344 604 282 q 818 407 726 407 q 974 345 911 407 q 1036 193 1036 283 q 974 43 1036 104 q 819 -18 911 -18 m 819 67 q 908 103 875 67 q 942 193 942 139 q 908 283 942 247 q 818 319 874 319 q 731 283 765 319 q 697 193 697 247 q 731 103 697 139 q 819 67 765 67 z "},"&":{"ha":949,"x_min":76,"x_max":900,"o":"m 900 0 l 769 0 l 701 92 q 414 -18 588 -18 q 169 75 263 -18 q 76 294 76 168 q 140 483 76 400 q 321 607 203 565 l 156 831 l 156 972 l 703 972 l 703 869 l 258 869 l 258 861 l 699 269 q 736 464 736 356 l 842 464 q 768 176 842 296 l 900 0 m 414 82 q 639 176 551 82 l 386 519 q 236 435 286 497 q 186 300 186 372 q 253 145 186 208 q 414 82 321 82 z "},"'":{"ha":319,"x_min":111,"x_max":208,"o":"m 119 697 l 111 972 l 208 972 l 200 697 l 119 697 z "},"(":{"ha":524,"x_min":132,"x_max":357,"o":"m 351 -199 q 190 -148 249 -199 q 132 8 132 -97 l 132 853 q 190 1009 132 958 q 351 1060 249 1060 l 357 1060 l 357 963 l 350 963 q 267 936 293 963 q 242 851 242 910 l 242 10 q 267 -75 242 -49 q 350 -101 293 -101 l 357 -101 l 357 -199 l 351 -199 z "},")":{"ha":524,"x_min":167,"x_max":392,"o":"m 167 -199 l 167 -101 l 174 -101 q 256 -75 231 -101 q 282 10 282 -49 l 282 851 q 256 936 282 910 q 174 963 231 963 l 167 963 l 167 1060 l 172 1060 q 333 1009 275 1060 q 392 853 392 958 l 392 8 q 333 -148 392 -97 q 172 -199 275 -199 l 167 -199 z "},"*":{"ha":683,"x_min":104,"x_max":579,"o":"m 307 497 l 321 669 l 310 675 l 199 542 l 149 592 l 282 703 l 276 714 l 104 700 l 104 769 l 276 756 l 282 767 l 149 878 l 199 928 l 310 794 l 321 800 l 307 972 l 376 972 l 363 800 l 374 794 l 485 928 l 535 878 l 401 767 l 407 756 l 579 769 l 579 700 l 407 714 l 401 703 l 535 592 l 485 542 l 374 675 l 363 669 l 376 497 l 307 497 z "},"+":{"ha":667,"x_min":7,"x_max":660,"o":"m 283 89 l 283 386 l 7 386 l 7 479 l 283 479 l 283 775 l 383 775 l 383 479 l 660 479 l 660 386 l 383 386 l 383 89 l 283 89 z "},",":{"ha":369,"x_min":111,"x_max":258,"o":"m 111 -154 l 135 129 l 258 129 l 201 -154 l 111 -154 z "},"-":{"ha":549,"x_min":97,"x_max":451,"o":"m 97 367 l 97 469 l 451 469 l 451 367 l 97 367 z "},".":{"ha":379,"x_min":111,"x_max":268,"o":"m 245 5 q 234 -7 245 5 q 190 -18 222 -18 q 135 5 158 -18 q 111 60 111 28 q 135 115 111 92 q 190 138 158 138 q 245 115 222 138 q 268 60 268 92 q 245 5 268 28 z "},"/":{"ha":675,"x_min":76,"x_max":599,"o":"m 76 -150 l 497 1042 l 599 1042 l 178 -150 l 76 -150 z "},":":{"ha":379,"x_min":111,"x_max":268,"o":"m 245 543 q 234 531 245 543 q 190 519 222 519 q 135 543 158 519 q 111 599 111 567 q 135 653 111 631 q 190 676 158 676 q 245 653 222 676 q 268 599 268 631 q 245 543 268 567 m 245 5 q 234 -7 245 5 q 190 -18 222 -18 q 135 5 158 -18 q 111 60 111 28 q 135 115 111 92 q 190 138 158 138 q 245 115 222 138 q 268 60 268 92 q 245 5 268 28 z "},";":{"ha":379,"x_min":111,"x_max":268,"o":"m 245 543 q 234 531 245 543 q 190 519 222 519 q 135 543 158 519 q 111 599 111 567 q 135 653 111 631 q 190 676 158 676 q 245 653 222 676 q 268 599 268 631 q 245 543 268 567 m 119 -154 l 143 129 l 267 129 l 210 -154 l 119 -154 z "},"<":{"ha":772,"x_min":104,"x_max":668,"o":"m 668 132 l 104 381 l 104 486 l 668 735 l 668 632 l 207 439 l 207 431 l 668 233 l 668 132 z "},"=":{"ha":667,"x_min":7,"x_max":660,"o":"m 7 496 l 7 588 l 660 588 l 660 496 l 7 496 m 7 265 l 7 358 l 660 358 l 660 265 l 7 265 z "},">":{"ha":774,"x_min":104,"x_max":668,"o":"m 104 132 l 104 233 l 565 431 l 565 439 l 104 632 l 104 735 l 668 486 l 668 381 l 104 132 z "},"?":{"ha":753,"x_min":97,"x_max":656,"o":"m 299 244 l 299 379 q 318 469 299 436 q 383 533 338 501 l 451 581 q 521 645 500 615 q 542 726 542 675 q 497 844 542 799 q 375 890 453 890 q 248 841 296 890 q 200 715 200 792 l 97 715 q 170 908 97 825 q 375 990 243 990 q 578 915 501 990 q 656 731 656 840 q 623 603 656 651 q 533 515 590 554 l 451 458 q 417 425 426 442 q 407 379 407 408 l 407 244 l 299 244 m 410 5 q 399 -7 410 5 q 356 -18 388 -18 q 300 5 324 -18 q 276 60 276 28 q 300 115 276 92 q 356 138 324 138 q 410 115 388 138 q 433 60 433 92 q 410 5 433 28 z "},"@":{"ha":1271,"x_min":69,"x_max":1201,"o":"m 629 -201 q 232 -40 394 -201 q 69 365 69 121 q 231 775 69 611 q 639 939 392 939 q 1043 787 885 939 q 1201 418 1201 635 q 1141 171 1201 256 q 976 86 1081 86 q 821 192 854 86 l 813 192 q 743 118 792 150 q 622 86 694 86 q 434 162 510 86 q 358 360 358 238 q 432 556 358 479 q 615 633 506 633 q 788 553 729 633 l 796 553 l 796 625 l 889 625 l 889 271 q 983 169 889 169 q 1113 417 1113 169 q 980 729 1113 603 q 638 856 847 856 q 297 714 429 856 q 165 367 165 572 q 295 20 165 157 q 629 -117 425 -117 q 889 -53 776 -117 l 931 -121 q 801 -178 882 -154 q 629 -201 721 -201 m 629 172 q 751 222 701 172 q 800 363 800 272 q 753 495 800 444 q 628 546 706 546 q 507 495 556 546 q 458 360 458 444 q 507 224 458 275 q 629 172 556 172 z "},"A":{"ha":936,"x_min":28,"x_max":908,"o":"m 790 0 l 706 231 l 231 231 l 146 0 l 28 0 l 390 972 l 550 972 l 908 0 l 790 0 m 268 333 l 668 333 l 472 869 l 464 869 l 268 333 z "},"B":{"ha":914,"x_min":111,"x_max":844,"o":"m 111 0 l 111 96 l 203 96 l 203 876 l 111 876 l 111 972 l 517 972 q 732 902 653 972 q 811 724 811 832 q 688 514 811 581 l 688 506 q 797 427 749 485 q 844 276 844 369 q 758 74 844 149 q 544 0 672 0 l 111 0 m 315 551 l 513 551 q 645 597 594 551 q 696 715 696 642 q 646 829 696 786 q 517 872 596 872 l 315 872 l 315 551 m 315 99 l 525 99 q 672 144 617 99 q 728 279 728 189 q 667 413 728 369 q 513 457 606 457 l 315 457 l 315 99 z "},"C":{"ha":1075,"x_min":69,"x_max":1013,"o":"m 561 -18 q 210 126 350 -18 q 69 486 69 269 q 210 846 69 701 q 563 990 351 990 q 843 903 722 990 q 1013 675 964 815 l 888 675 q 761 828 849 771 q 563 885 674 885 q 294 771 401 885 q 186 486 186 657 q 293 201 186 314 q 563 88 400 88 q 763 144 675 88 q 888 297 851 201 l 1013 297 q 844 69 967 156 q 561 -18 722 -18 z "},"D":{"ha":1021,"x_min":111,"x_max":951,"o":"m 111 0 l 111 96 l 203 96 l 203 876 l 111 876 l 111 972 l 464 972 q 821 838 690 972 q 951 486 951 703 q 823 129 951 258 q 464 0 694 0 l 111 0 m 315 100 l 464 100 q 737 202 638 100 q 836 486 836 304 q 737 767 836 664 q 464 871 638 871 l 315 871 l 315 100 z "},"E":{"ha":778,"x_min":139,"x_max":708,"o":"m 139 0 l 139 972 l 693 972 l 693 869 l 251 869 l 251 546 l 632 546 l 632 444 l 251 444 l 251 101 l 708 101 l 708 0 l 139 0 z "},"F":{"ha":763,"x_min":139,"x_max":693,"o":"m 139 0 l 139 972 l 693 972 l 693 869 l 251 869 l 251 536 l 664 536 l 664 435 l 251 435 l 251 0 l 139 0 z "},"G":{"ha":1115,"x_min":69,"x_max":1046,"o":"m 564 -18 q 211 126 353 -18 q 69 486 69 269 q 210 846 69 701 q 563 990 351 990 q 843 903 722 990 q 1013 675 964 815 l 888 675 q 761 828 849 771 q 563 885 674 885 q 294 771 401 885 q 186 486 186 657 q 294 201 186 314 q 565 88 403 88 q 783 153 688 88 q 913 357 878 219 l 615 357 l 615 456 l 1046 456 q 983 235 1029 329 q 870 87 938 140 q 726 8 803 33 q 564 -18 650 -18 z "},"H":{"ha":1019,"x_min":139,"x_max":881,"o":"m 139 0 l 139 972 l 251 972 l 251 546 l 768 546 l 768 972 l 881 972 l 881 0 l 768 0 l 768 443 l 251 443 l 251 0 l 139 0 z "},"I":{"ha":651,"x_min":125,"x_max":526,"o":"m 125 0 l 125 97 l 269 97 l 269 875 l 125 875 l 125 972 l 526 972 l 526 875 l 382 875 l 382 97 l 526 97 l 526 0 l 125 0 z "},"J":{"ha":736,"x_min":28,"x_max":611,"o":"m 315 -18 q 110 52 193 -18 q 28 256 28 122 l 140 256 q 188 131 140 175 q 319 86 235 86 q 458 146 417 86 q 499 297 499 206 l 499 869 l 207 869 l 207 972 l 611 972 l 611 300 q 595 182 611 236 q 547 81 579 128 q 454 8 514 35 q 315 -18 394 -18 z "},"K":{"ha":858,"x_min":139,"x_max":831,"o":"m 139 0 l 139 972 l 251 972 l 251 556 l 385 556 l 679 972 l 814 972 l 476 507 l 831 0 l 692 0 l 386 453 l 251 453 l 251 0 l 139 0 z "},"L":{"ha":740,"x_min":139,"x_max":671,"o":"m 139 0 l 139 972 l 251 972 l 251 101 l 671 101 l 671 0 l 139 0 z "},"M":{"ha":1231,"x_min":139,"x_max":1092,"o":"m 139 0 l 139 972 l 332 972 l 611 103 l 619 103 l 899 972 l 1092 972 l 1092 0 l 983 0 l 983 869 l 975 869 l 693 0 l 538 0 l 256 869 l 247 869 l 247 0 l 139 0 z "},"N":{"ha":1021,"x_min":139,"x_max":882,"o":"m 139 0 l 139 972 l 324 972 l 763 103 l 771 103 l 771 972 l 882 972 l 882 0 l 693 0 l 260 869 l 251 869 l 251 0 l 139 0 z "},"O":{"ha":1131,"x_min":69,"x_max":1061,"o":"m 564 -18 q 211 126 353 -18 q 69 486 69 269 q 212 846 69 701 q 565 990 354 990 q 919 845 776 990 q 1061 486 1061 700 q 919 126 1061 271 q 564 -18 776 -18 m 294 201 q 349 144 294 201 q 565 88 403 88 q 836 201 728 88 q 944 486 944 314 q 835 771 944 657 q 565 885 726 885 q 295 771 404 885 q 186 486 186 657 q 294 201 186 314 z "},"P":{"ha":813,"x_min":139,"x_max":757,"o":"m 139 0 l 139 972 l 460 972 q 675 892 593 972 q 757 681 757 813 q 673 467 757 550 q 460 385 589 385 l 251 385 l 251 0 l 139 0 m 251 485 l 450 485 q 589 540 536 485 q 642 681 642 594 q 589 819 642 765 q 450 872 536 872 l 251 872 l 251 485 z "},"Q":{"ha":1131,"x_min":69,"x_max":1061,"o":"m 756 -112 l 710 3 q 564 -18 633 -18 q 211 126 353 -18 q 69 486 69 269 q 212 846 69 701 q 565 990 354 990 q 919 845 776 990 q 1061 486 1061 700 q 992 222 1061 340 q 803 40 922 104 l 864 -112 l 756 -112 m 565 88 q 671 101 624 88 l 569 358 l 679 358 l 764 142 q 896 284 847 193 q 944 486 944 375 q 835 771 944 657 q 565 885 726 885 q 295 771 404 885 q 186 486 186 657 q 294 201 186 314 q 565 88 403 88 z "},"R":{"ha":850,"x_min":139,"x_max":794,"o":"m 139 0 l 139 972 l 447 972 q 679 895 594 972 q 764 689 764 818 q 704 501 764 578 q 533 403 644 424 l 794 0 l 658 0 l 415 393 l 251 393 l 251 0 l 139 0 m 251 493 l 447 493 q 592 544 536 493 q 647 688 647 594 q 593 820 647 768 q 440 872 539 872 l 251 872 l 251 493 z "},"S":{"ha":817,"x_min":63,"x_max":747,"o":"m 410 -18 q 163 69 263 -18 q 63 289 63 156 l 175 289 q 240 144 175 203 q 414 86 306 86 q 572 131 511 86 q 633 250 633 175 q 578 378 633 333 q 443 440 522 422 q 285 480 364 458 q 151 563 207 501 q 96 731 96 624 q 181 915 96 839 q 407 990 265 990 q 630 919 533 990 q 726 708 726 847 l 611 708 q 558 840 611 793 q 406 888 504 888 q 258 842 308 888 q 208 731 208 796 q 238 642 208 678 q 315 589 268 607 q 420 557 363 571 q 535 524 478 543 q 640 477 593 506 q 717 392 688 449 q 747 257 747 336 q 656 60 747 139 q 410 -18 565 -18 z "},"T":{"ha":763,"x_min":42,"x_max":721,"o":"m 325 0 l 325 869 l 42 869 l 42 972 l 721 972 l 721 869 l 438 869 l 438 0 l 325 0 z "},"U":{"ha":975,"x_min":125,"x_max":850,"o":"m 488 -18 q 220 81 315 -18 q 125 349 125 181 l 125 972 l 238 972 l 238 350 q 302 156 238 226 q 488 86 367 86 q 674 157 608 86 q 739 351 739 228 l 739 972 l 850 972 l 850 350 q 754 83 850 183 q 488 -18 658 -18 z "},"V":{"ha":915,"x_min":28,"x_max":888,"o":"m 374 0 l 28 972 l 149 972 l 447 103 l 456 103 l 761 972 l 888 972 l 533 0 l 374 0 z "},"W":{"ha":1289,"x_min":28,"x_max":1261,"o":"m 263 0 l 28 972 l 149 972 l 347 103 l 356 103 l 560 972 l 729 972 l 933 103 l 942 103 l 1140 972 l 1261 972 l 1026 0 l 849 0 l 649 869 l 640 869 l 440 0 l 263 0 z "},"X":{"ha":828,"x_min":14,"x_max":814,"o":"m 14 0 l 342 493 l 31 972 l 161 972 l 410 583 l 418 583 l 668 972 l 800 972 l 486 493 l 814 0 l 681 0 l 415 404 l 407 404 l 146 0 l 14 0 z "},"Y":{"ha":828,"x_min":28,"x_max":800,"o":"m 358 0 l 358 429 l 28 972 l 154 972 l 407 540 l 415 540 l 668 972 l 800 972 l 469 429 l 469 0 l 358 0 z "},"Z":{"ha":860,"x_min":69,"x_max":790,"o":"m 69 0 l 69 153 l 685 863 l 685 871 l 88 871 l 88 972 l 788 972 l 788 819 l 172 110 l 172 101 l 790 101 l 790 0 l 69 0 z "},"[":{"ha":524,"x_min":132,"x_max":357,"o":"m 132 -199 l 132 1060 l 357 1060 l 357 964 l 242 964 l 242 -103 l 357 -103 l 357 -199 l 132 -199 z "},"\\":{"ha":675,"x_min":76,"x_max":599,"o":"m 497 -150 l 76 1042 l 178 1042 l 599 -150 l 497 -150 z "},"]":{"ha":524,"x_min":167,"x_max":392,"o":"m 167 -199 l 167 -103 l 282 -103 l 282 964 l 167 964 l 167 1060 l 392 1060 l 392 -199 l 167 -199 z "},"^":{"ha":811,"x_min":104,"x_max":707,"o":"m 104 442 l 353 972 l 458 972 l 707 442 l 606 442 l 408 869 l 400 869 l 207 442 l 104 442 z "},"_":{"ha":931,"x_min":90,"x_max":840,"o":"m 90 -132 l 90 -40 l 840 -40 l 840 -132 l 90 -132 z "},"`":{"ha":350,"x_min":69,"x_max":281,"o":"m 193 847 l 69 1032 l 197 1032 l 281 847 l 193 847 z "},"a":{"ha":932,"x_min":69,"x_max":849,"o":"m 422 -18 q 168 88 267 -18 q 69 360 69 194 q 165 634 69 528 q 414 740 261 740 q 573 696 511 740 q 660 606 635 651 l 668 606 l 668 722 l 779 722 l 779 131 q 815 97 779 97 l 849 97 l 849 0 l 778 0 q 703 30 733 0 q 672 107 674 60 l 672 114 l 664 114 q 422 -18 582 -18 m 428 81 q 606 161 539 81 q 672 358 672 242 q 602 565 672 489 q 426 640 532 640 q 251 561 319 640 q 182 358 182 482 q 252 158 182 235 q 428 81 322 81 z "},"b":{"ha":904,"x_min":125,"x_max":835,"o":"m 482 -18 q 239 114 329 -18 l 231 114 l 231 0 l 125 0 l 125 1042 l 235 1042 l 235 606 l 243 606 q 271 644 254 625 q 317 686 288 663 q 392 725 347 710 q 490 740 438 740 q 739 633 643 740 q 835 360 835 526 q 735 88 835 194 q 482 -18 636 -18 m 475 81 q 651 158 581 81 q 722 358 722 235 q 653 561 722 482 q 478 640 585 640 q 301 565 372 640 q 231 358 231 489 q 298 161 231 242 q 475 81 365 81 z "},"c":{"ha":846,"x_min":69,"x_max":776,"o":"m 440 -18 q 174 90 278 -18 q 69 361 69 199 q 175 631 69 522 q 439 740 281 740 q 652 672 560 740 q 774 485 744 603 l 665 460 q 589 590 651 540 q 442 640 526 640 q 256 560 328 640 q 183 361 183 481 q 257 160 183 239 q 444 82 331 82 q 592 132 529 82 q 668 263 654 182 l 776 238 q 654 51 747 119 q 440 -18 561 -18 z "},"d":{"ha":890,"x_min":69,"x_max":779,"o":"m 422 -18 q 169 88 268 -18 q 69 360 69 194 q 165 633 69 526 q 414 740 261 740 q 512 725 467 740 q 587 686 557 710 q 633 644 617 663 q 661 606 650 625 l 669 606 l 669 1042 l 779 1042 l 779 0 l 674 0 l 674 114 l 665 114 q 422 -18 575 -18 m 429 81 q 606 161 539 81 q 674 358 674 242 q 603 565 674 489 q 426 640 532 640 q 251 561 319 640 q 182 358 182 482 q 252 158 182 235 q 429 81 322 81 z "},"e":{"ha":832,"x_min":69,"x_max":763,"o":"m 426 -18 q 167 86 264 -18 q 69 358 69 190 q 171 634 69 528 q 419 740 272 740 q 672 638 581 740 q 763 371 763 536 l 763 331 l 182 331 q 249 145 183 211 q 428 79 314 79 q 567 122 506 79 q 646 238 629 164 l 753 213 q 635 45 722 108 q 426 -18 549 -18 m 185 419 l 650 419 q 579 584 644 526 q 419 642 514 642 q 259 580 328 642 q 185 419 190 518 z "},"f":{"ha":561,"x_min":42,"x_max":499,"o":"m 178 0 l 178 629 l 42 629 l 42 722 l 178 722 l 178 836 q 397 1042 178 1042 l 493 1042 l 493 946 l 396 946 q 313 919 339 946 q 288 835 288 893 l 288 722 l 499 722 l 499 629 l 288 629 l 288 0 l 178 0 z "},"g":{"ha":890,"x_min":69,"x_max":779,"o":"m 247 -319 l 247 -218 l 561 -218 q 644 -190 618 -218 q 669 -103 669 -161 l 669 117 l 661 117 q 574 25 635 68 q 414 -18 514 -18 q 165 88 261 -18 q 69 363 69 194 q 169 634 69 528 q 422 740 268 740 q 665 608 575 740 l 674 608 l 674 722 l 779 722 l 779 -114 q 560 -319 779 -319 l 247 -319 m 426 82 q 603 158 532 82 q 674 363 674 233 q 606 560 674 479 q 429 640 539 640 q 252 564 322 640 q 182 363 182 488 q 251 160 182 239 q 426 82 319 82 z "},"h":{"ha":850,"x_min":125,"x_max":739,"o":"m 125 0 l 125 1042 l 235 1042 l 235 617 l 243 617 q 327 705 268 669 q 467 740 386 740 q 665 658 590 740 q 739 454 739 576 l 739 0 l 629 0 l 629 447 q 574 585 629 532 q 440 638 518 638 q 295 581 356 638 q 235 439 235 525 l 235 0 l 125 0 z "},"i":{"ha":479,"x_min":83,"x_max":354,"o":"m 331 876 q 320 864 331 876 q 274 853 308 853 q 217 876 239 853 q 194 933 194 899 q 217 990 194 967 q 274 1013 239 1013 q 331 990 308 1013 q 354 933 354 967 q 331 876 354 899 m 219 0 l 219 629 l 83 629 l 83 722 l 329 722 l 329 0 l 219 0 z "},"j":{"ha":483,"x_min":21,"x_max":372,"o":"m 349 876 q 338 864 349 876 q 292 853 326 853 q 235 876 257 853 q 213 933 213 899 q 235 990 213 967 q 292 1013 257 1013 q 349 990 326 1013 q 372 933 372 967 q 349 876 372 899 m 21 -319 l 21 -222 l 129 -222 q 212 -197 186 -222 q 238 -112 238 -171 l 238 629 l 81 629 l 81 722 l 347 722 l 347 -114 q 128 -319 347 -319 l 21 -319 z "},"k":{"ha":738,"x_min":125,"x_max":710,"o":"m 125 0 l 125 1042 l 235 1042 l 235 443 l 361 443 l 565 722 l 692 722 l 454 403 l 454 394 l 710 0 l 579 0 l 365 343 l 235 343 l 235 0 l 125 0 z "},"l":{"ha":540,"x_min":90,"x_max":492,"o":"m 90 0 l 90 94 l 236 94 l 236 947 l 90 947 l 90 1042 l 346 1042 l 346 94 l 492 94 l 492 0 l 90 0 z "},"m":{"ha":1297,"x_min":125,"x_max":1186,"o":"m 125 0 l 125 722 l 235 722 l 235 618 l 243 618 q 454 740 307 740 q 592 705 533 740 q 682 608 651 669 l 692 608 q 921 740 761 740 q 1113 664 1040 740 q 1186 468 1186 588 l 1186 0 l 1076 0 l 1076 432 q 1030 585 1076 532 q 901 638 983 638 q 766 583 821 638 q 711 431 711 528 l 711 0 l 601 0 l 601 453 q 551 588 601 538 q 422 638 500 638 q 290 581 344 638 q 235 435 235 524 l 235 0 l 125 0 z "},"n":{"ha":844,"x_min":125,"x_max":733,"o":"m 125 0 l 125 722 l 235 722 l 235 617 l 243 617 q 326 705 268 669 q 464 740 383 740 q 660 659 588 740 q 733 454 733 578 l 733 0 l 624 0 l 624 447 q 569 585 624 532 q 438 638 515 638 q 293 578 351 638 q 235 431 235 519 l 235 0 l 125 0 z "},"o":{"ha":893,"x_min":69,"x_max":824,"o":"m 716 90 q 662 36 716 90 q 446 -18 608 -18 q 176 90 283 -18 q 69 361 69 197 q 178 633 69 525 q 447 740 286 740 q 717 632 610 740 q 824 361 824 524 q 716 90 824 199 m 446 82 q 637 161 563 82 q 711 361 711 240 q 637 561 711 482 q 446 640 563 640 q 256 560 331 640 q 182 361 182 481 q 256 160 182 239 q 446 82 331 82 z "},"p":{"ha":904,"x_min":125,"x_max":835,"o":"m 125 -319 l 125 722 l 231 722 l 231 608 l 239 608 q 482 740 329 740 q 735 634 636 740 q 835 363 835 528 q 739 88 835 194 q 490 -18 643 -18 q 330 25 390 -18 q 243 117 269 68 l 235 117 l 235 -319 l 125 -319 m 478 82 q 653 160 585 82 q 722 363 722 239 q 652 564 722 488 q 475 640 582 640 q 298 560 365 640 q 231 363 231 479 q 301 158 231 233 q 478 82 372 82 z "},"q":{"ha":890,"x_min":69,"x_max":779,"o":"m 669 -319 l 669 117 l 661 117 q 574 25 635 68 q 414 -18 514 -18 q 165 88 261 -18 q 69 363 69 194 q 169 634 69 528 q 422 740 268 740 q 665 608 575 740 l 674 608 l 674 722 l 779 722 l 779 -319 l 669 -319 m 426 82 q 603 158 532 82 q 674 363 674 233 q 606 560 674 479 q 429 640 539 640 q 252 564 322 640 q 182 363 182 488 q 251 160 182 239 q 426 82 319 82 z "},"r":{"ha":542,"x_min":125,"x_max":486,"o":"m 125 0 l 125 722 l 233 722 l 233 601 l 242 601 q 313 697 260 654 q 439 740 367 740 l 486 740 l 486 631 l 421 631 q 281 563 326 631 q 235 386 235 496 l 235 0 l 125 0 z "},"s":{"ha":735,"x_min":83,"x_max":644,"o":"m 364 -18 q 170 42 244 -18 q 83 200 96 101 l 183 225 q 238 115 189 153 q 369 78 286 78 q 493 113 449 78 q 538 204 538 147 q 493 288 538 260 q 385 328 449 317 q 258 355 322 340 q 150 415 194 369 q 106 539 106 460 q 178 685 106 629 q 367 740 251 740 q 541 686 465 740 q 629 538 617 632 l 533 510 q 479 609 526 572 q 360 646 432 646 q 252 616 293 646 q 211 539 211 586 q 256 464 211 489 q 364 428 300 439 q 492 403 428 418 q 600 340 556 388 q 644 210 644 293 q 567 44 644 107 q 364 -18 490 -18 z "},"t":{"ha":600,"x_min":56,"x_max":524,"o":"m 411 0 q 192 206 192 0 l 192 629 l 56 629 l 56 722 l 199 722 l 199 932 l 301 932 l 301 722 l 524 722 l 524 629 l 301 629 l 301 207 q 327 122 301 149 q 410 96 353 96 l 514 96 l 514 0 l 411 0 z "},"u":{"ha":831,"x_min":111,"x_max":719,"o":"m 381 -18 q 184 63 257 -18 q 111 268 111 144 l 111 722 l 221 722 l 221 272 q 275 135 221 188 q 407 82 329 82 q 551 141 493 82 q 610 289 610 200 l 610 722 l 719 722 l 719 0 l 610 0 l 610 106 l 601 106 q 519 17 576 53 q 381 -18 461 -18 z "},"v":{"ha":765,"x_min":42,"x_max":724,"o":"m 311 0 l 42 722 l 160 722 l 378 103 l 386 103 l 603 722 l 724 722 l 456 0 l 311 0 z "},"w":{"ha":1197,"x_min":42,"x_max":1156,"o":"m 267 0 l 42 722 l 161 722 l 338 103 l 346 103 l 522 722 l 675 722 l 850 103 l 858 103 l 1036 722 l 1156 722 l 929 0 l 776 0 l 603 619 l 594 619 l 419 0 l 267 0 z "},"x":{"ha":739,"x_min":35,"x_max":704,"o":"m 35 0 l 296 376 l 54 722 l 183 722 l 365 450 l 374 450 l 556 722 l 685 722 l 443 371 l 704 0 l 575 0 l 374 293 l 361 293 l 163 0 l 35 0 z "},"y":{"ha":772,"x_min":42,"x_max":731,"o":"m 83 -319 l 83 -219 l 164 -219 q 240 -199 213 -219 q 285 -135 268 -179 l 336 0 l 307 0 l 42 722 l 164 722 l 375 106 l 383 106 l 607 722 l 731 722 l 379 -183 q 299 -287 351 -254 q 160 -319 247 -319 l 83 -319 z "},"z":{"ha":717,"x_min":83,"x_max":633,"o":"m 83 0 l 83 135 l 524 621 l 524 629 l 96 629 l 96 722 l 626 722 l 626 588 l 186 101 l 186 93 l 633 93 l 633 0 l 83 0 z "},"{":{"ha":625,"x_min":132,"x_max":458,"o":"m 453 -199 q 292 -148 350 -199 q 233 8 233 -97 l 233 317 q 175 381 233 381 l 132 381 l 132 481 l 175 481 q 233 544 233 481 l 233 853 q 292 1009 233 958 q 453 1060 350 1060 l 458 1060 l 458 963 l 451 963 q 369 936 394 963 q 343 851 343 910 l 343 546 q 275 435 343 444 l 275 426 q 343 315 343 417 l 343 10 q 369 -75 343 -49 q 451 -101 394 -101 l 458 -101 l 458 -199 l 453 -199 z "},"|":{"ha":439,"x_min":167,"x_max":272,"o":"m 167 -286 l 167 1088 l 272 1088 l 272 -286 l 167 -286 z "},"}":{"ha":625,"x_min":167,"x_max":493,"o":"m 167 -199 l 167 -101 l 174 -101 q 256 -75 231 -101 q 282 10 282 -49 l 282 315 q 350 426 282 417 l 350 435 q 282 546 282 444 l 282 851 q 256 936 282 910 q 174 963 231 963 l 167 963 l 167 1060 l 172 1060 q 333 1009 275 1060 q 392 853 392 958 l 392 544 q 450 481 392 481 l 493 481 l 493 381 l 450 381 q 392 317 392 381 l 392 8 q 333 -148 392 -97 q 172 -199 275 -199 l 167 -199 z "},"~":{"ha":828,"x_min":104,"x_max":724,"o":"m 104 326 q 151 466 104 411 q 281 521 199 521 q 426 473 340 521 q 544 425 511 425 q 608 453 586 425 q 632 521 631 481 l 724 521 q 677 383 724 440 q 549 326 631 326 q 413 374 493 326 q 283 422 332 422 q 219 395 240 422 q 194 326 197 368 l 104 326 z "}," ":{"ha":389,"x_min":0,"x_max":0,"o":""},"¡":{"ha":435,"x_min":139,"x_max":296,"o":"m 272 645 q 260 634 272 645 q 217 622 249 622 q 162 645 185 622 q 139 700 139 668 q 162 755 139 732 q 217 778 185 778 q 272 755 249 778 q 296 700 296 732 q 272 645 296 668 m 160 -212 l 169 515 l 265 515 l 275 -212 l 160 -212 z "},"¢":{"ha":846,"x_min":69,"x_max":776,"o":"m 776 358 q 675 188 751 254 q 494 107 599 122 l 494 0 l 408 0 l 408 104 q 164 222 258 115 q 69 482 69 329 q 165 742 69 635 q 408 860 261 849 l 408 972 l 494 972 l 494 857 q 673 776 597 842 q 774 606 749 710 l 665 581 q 589 711 651 661 q 442 761 526 761 q 256 681 328 761 q 183 482 183 601 q 257 281 183 360 q 444 203 331 203 q 592 253 529 203 q 668 383 654 303 l 776 358 z "},"£":{"ha":854,"x_min":97,"x_max":750,"o":"m 97 0 l 97 100 l 190 100 l 190 438 l 110 438 l 110 531 l 190 531 l 190 710 q 272 912 190 833 q 478 990 353 990 q 673 918 601 990 q 750 758 744 846 l 640 758 q 592 847 636 808 q 479 885 547 885 q 351 835 400 885 q 303 704 303 786 l 303 531 l 536 531 l 536 438 l 303 438 l 303 100 l 749 100 l 749 0 l 97 0 z "},"¥":{"ha":828,"x_min":28,"x_max":800,"o":"m 800 972 l 524 518 l 690 518 l 690 422 l 469 422 l 469 311 l 690 311 l 690 215 l 469 215 l 469 0 l 358 0 l 358 215 l 138 215 l 138 311 l 358 311 l 358 422 l 138 422 l 138 518 l 304 518 l 28 972 l 154 972 l 407 540 l 415 540 l 668 972 l 800 972 z "},"§":{"ha":744,"x_min":90,"x_max":654,"o":"m 364 -296 q 169 -228 249 -296 q 90 -49 90 -161 l 197 -49 q 240 -149 200 -104 q 364 -194 279 -194 q 474 -158 431 -194 q 518 -64 517 -122 q 403 92 518 24 l 207 211 q 90 401 90 282 q 126 514 90 467 q 217 582 161 561 l 217 590 q 114 786 114 671 q 187 953 114 889 q 379 1018 260 1018 q 574 951 494 1018 q 653 771 653 883 l 546 771 q 503 872 543 826 q 379 917 464 917 q 269 881 311 917 q 226 785 226 844 q 342 629 226 697 l 496 539 q 614 442 574 493 q 654 321 654 390 q 528 139 654 193 l 528 131 q 631 -65 631 50 q 557 -231 631 -167 q 364 -296 483 -296 m 429 194 q 515 232 481 196 q 550 318 550 268 q 446 454 550 394 l 315 526 q 229 489 264 525 q 194 403 194 453 q 257 294 194 331 l 429 194 z "},"¨":{"ha":508,"x_min":65,"x_max":443,"o":"m 138 864 q 86 885 107 864 q 65 936 65 906 q 86 988 65 967 q 138 1008 107 1008 q 190 988 169 1008 q 210 936 210 967 q 190 884 210 904 q 138 864 169 864 m 371 864 q 319 884 339 864 q 299 936 299 904 q 319 988 299 968 q 371 1008 339 1008 q 422 988 401 1008 q 443 936 443 967 q 422 885 443 906 q 371 864 401 864 z "},"©":{"ha":1135,"x_min":69,"x_max":1065,"o":"m 567 -19 q 210 125 351 -19 q 69 483 69 269 q 211 843 69 696 q 564 990 353 990 q 923 844 781 990 q 1065 483 1065 697 q 924 125 1065 269 q 567 -19 783 -19 m 567 60 q 862 181 747 60 q 976 485 976 301 q 861 788 976 667 q 564 910 746 910 q 273 788 388 910 q 158 483 158 667 q 273 181 158 301 q 567 60 388 60 m 571 215 q 382 292 456 215 q 308 483 308 368 q 383 674 308 597 q 569 751 457 751 q 722 703 658 751 q 807 571 786 654 l 724 550 q 670 635 710 604 q 572 665 631 665 q 448 614 493 665 q 403 483 403 563 q 449 352 403 403 q 574 301 494 301 q 728 413 693 301 l 808 396 q 722 261 786 307 q 571 215 658 215 z "},"ª":{"ha":769,"x_min":83,"x_max":686,"o":"m 349 417 q 157 497 231 417 q 83 703 83 576 q 155 910 83 829 q 343 990 226 990 q 465 956 417 990 q 531 889 513 922 l 540 889 l 540 976 l 629 976 l 629 544 q 658 510 629 510 l 686 510 l 686 431 l 628 431 q 567 455 592 431 q 542 517 543 479 l 533 517 q 505 478 522 497 q 444 438 488 458 q 349 417 401 417 m 357 497 q 492 556 442 497 q 542 701 542 614 q 489 855 542 800 q 356 910 436 910 q 224 852 275 910 q 174 701 174 794 q 225 552 174 607 q 357 497 276 497 z "},"«":{"ha":682,"x_min":90,"x_max":592,"o":"m 263 151 l 90 396 l 90 415 l 263 661 l 369 661 l 197 410 l 197 401 l 369 151 l 263 151 m 485 151 l 313 396 l 313 415 l 485 661 l 592 661 l 419 410 l 419 401 l 592 151 l 485 151 z "},"­":{"ha":549,"x_min":97,"x_max":451,"o":"m 97 367 l 97 469 l 451 469 l 451 367 l 97 367 z "},"®":{"ha":711,"x_min":69,"x_max":642,"o":"m 356 465 q 149 546 228 465 q 69 747 69 626 q 148 949 69 868 q 353 1031 226 1031 q 563 950 483 1031 q 642 749 642 869 q 563 547 642 629 q 356 465 485 465 m 356 524 q 518 586 458 524 q 578 749 578 649 q 517 910 578 849 q 353 971 457 971 q 193 908 253 971 q 133 747 133 846 q 194 587 133 650 q 356 524 254 524 m 254 597 l 254 897 l 374 897 q 450 869 422 897 q 478 800 478 840 q 432 715 478 736 l 489 597 l 421 597 l 375 700 l 319 700 l 319 597 l 254 597 m 319 757 l 368 757 q 399 769 388 757 q 410 799 410 782 q 399 828 410 817 q 368 840 388 840 l 319 840 l 319 757 z "},"¯":{"ha":475,"x_min":69,"x_max":406,"o":"m 69 881 l 69 974 l 406 974 l 406 881 l 69 881 z "},"°":{"ha":574,"x_min":83,"x_max":490,"o":"m 433 647 q 405 618 433 647 q 286 589 376 589 q 140 647 196 589 q 83 789 83 704 q 141 931 83 872 q 286 990 199 990 q 433 932 375 990 q 490 790 490 874 q 433 647 490 704 m 202 704 q 218 688 202 704 q 286 671 233 671 q 370 705 339 671 q 401 790 401 739 q 370 875 401 842 q 286 908 339 908 q 203 874 235 908 q 171 789 171 840 q 202 704 171 738 z "},"²":{"ha":526,"x_min":83,"x_max":443,"o":"m 89 422 l 89 531 l 286 711 q 344 822 344 764 q 320 878 344 854 q 254 901 296 901 q 190 876 214 901 q 165 818 165 850 l 83 818 q 128 932 83 881 q 256 983 174 983 q 387 935 339 983 q 435 824 435 888 q 354 665 435 736 l 175 506 l 175 500 l 443 500 l 443 422 l 89 422 z "},"³":{"ha":536,"x_min":83,"x_max":453,"o":"m 260 411 q 132 462 181 411 q 83 576 83 513 l 167 576 q 260 492 174 492 q 333 515 306 492 q 361 585 361 539 q 333 651 361 626 q 260 675 304 675 l 190 675 l 190 774 l 349 888 l 349 893 l 108 893 l 108 972 l 435 972 l 435 857 l 276 749 l 276 744 l 289 744 q 408 695 363 744 q 453 585 453 646 q 399 460 453 510 q 260 411 346 411 z "},"´":{"ha":350,"x_min":69,"x_max":281,"o":"m 69 847 l 153 1032 l 281 1032 l 157 847 l 69 847 z "},"¶":{"ha":821,"x_min":97,"x_max":731,"o":"m 358 -62 l 358 457 q 173 533 249 458 q 97 715 97 608 q 172 897 97 822 q 354 972 247 972 l 731 972 l 731 876 l 639 876 l 639 -62 l 543 -62 l 543 876 l 453 876 l 453 -62 l 358 -62 z "},"·":{"ha":379,"x_min":111,"x_max":268,"o":"m 244 381 q 233 369 244 381 q 189 357 221 357 q 134 381 157 357 q 111 436 111 404 q 134 491 111 468 q 189 514 157 514 q 244 491 221 514 q 268 436 268 468 q 244 381 268 404 z "},"¸":{"ha":264,"x_min":69,"x_max":194,"o":"m 69 -253 l 103 0 l 194 0 l 172 -253 l 69 -253 z "},"¹":{"ha":489,"x_min":83,"x_max":406,"o":"m 106 422 l 106 504 l 214 504 l 214 886 l 206 886 l 83 821 l 83 911 l 199 972 l 303 972 l 303 504 l 406 504 l 406 422 l 106 422 z "},"º":{"ha":738,"x_min":83,"x_max":654,"o":"m 369 417 q 165 497 246 417 q 83 701 83 578 q 165 908 83 826 q 371 990 247 990 q 574 908 493 990 q 654 703 654 826 q 573 499 654 581 q 369 417 492 417 m 369 496 q 509 555 454 496 q 564 703 564 614 q 509 850 564 792 q 369 908 454 908 q 228 849 283 908 q 174 701 174 790 q 228 554 174 613 q 369 496 283 496 z "},"»":{"ha":682,"x_min":90,"x_max":592,"o":"m 90 151 l 263 401 l 263 410 l 90 661 l 197 661 l 369 415 l 369 396 l 197 151 l 90 151 m 313 151 l 485 401 l 485 410 l 313 661 l 419 661 l 592 415 l 592 396 l 419 151 l 313 151 z "},"¼":{"ha":1186,"x_min":83,"x_max":1103,"o":"m 290 -57 l 831 1029 l 932 1029 l 392 -57 l 290 -57 m 106 422 l 106 504 l 214 504 l 214 886 l 206 886 l 83 821 l 83 911 l 199 972 l 303 972 l 303 504 l 406 504 l 406 422 l 106 422 m 940 0 l 940 129 l 671 129 l 671 226 l 907 550 l 1029 550 l 1029 208 l 1103 208 l 1103 129 l 1029 129 l 1029 0 l 940 0 m 757 208 l 940 208 l 940 464 l 936 464 l 757 214 l 757 208 z "},"½":{"ha":1221,"x_min":83,"x_max":1138,"o":"m 290 -57 l 831 1029 l 932 1029 l 392 -57 l 290 -57 m 106 422 l 106 504 l 214 504 l 214 886 l 206 886 l 83 821 l 83 911 l 199 972 l 303 972 l 303 504 l 406 504 l 406 422 l 106 422 m 783 0 l 783 108 l 981 289 q 1039 400 1039 342 q 1015 456 1039 432 q 949 479 990 479 q 884 453 908 479 q 860 396 860 428 l 778 396 q 823 510 778 458 q 950 561 868 561 q 1081 513 1033 561 q 1129 401 1129 465 q 1049 243 1129 314 l 869 83 l 869 78 l 1138 78 l 1138 0 l 783 0 z "},"¾":{"ha":1201,"x_min":83,"x_max":1118,"o":"m 306 -57 l 846 1029 l 947 1029 l 407 -57 l 306 -57 m 260 411 q 132 462 181 411 q 83 576 83 513 l 167 576 q 260 492 174 492 q 333 515 306 492 q 361 585 361 539 q 333 651 361 626 q 260 675 304 675 l 190 675 l 190 774 l 349 888 l 349 893 l 108 893 l 108 972 l 435 972 l 435 857 l 276 749 l 276 744 l 289 744 q 408 695 363 744 q 453 585 453 646 q 399 460 453 510 q 260 411 346 411 m 956 0 l 956 129 l 686 129 l 686 226 l 922 550 l 1044 550 l 1044 208 l 1118 208 l 1118 129 l 1044 129 l 1044 0 l 956 0 m 772 208 l 956 208 l 956 464 l 951 464 l 772 214 l 772 208 z "},"¿":{"ha":753,"x_min":97,"x_max":656,"o":"m 453 645 q 441 634 453 645 q 397 622 429 622 q 342 645 365 622 q 319 700 319 668 q 342 755 319 732 q 397 778 365 778 q 453 755 429 778 q 476 700 476 732 q 453 645 476 668 m 378 -231 q 174 -156 251 -231 q 97 29 97 -81 q 130 157 97 108 q 219 244 163 206 l 301 301 q 336 335 326 318 q 346 381 346 351 l 346 515 l 454 515 l 454 381 q 435 291 454 324 q 369 226 415 258 l 301 179 q 232 115 253 144 q 211 33 211 85 q 256 -85 211 -39 q 378 -131 300 -131 q 505 -81 457 -131 q 553 44 553 -32 l 656 44 q 583 -148 656 -65 q 378 -231 510 -231 z "},"À":{"ha":936,"x_min":28,"x_max":908,"o":"m 540 1097 l 453 1097 l 329 1282 l 457 1282 l 540 1097 m 790 0 l 706 231 l 231 231 l 146 0 l 28 0 l 390 972 l 550 972 l 908 0 l 790 0 m 268 333 l 668 333 l 472 869 l 464 869 l 268 333 z "},"Á":{"ha":936,"x_min":28,"x_max":908,"o":"m 629 1282 l 506 1097 l 418 1097 l 501 1282 l 629 1282 m 790 0 l 706 231 l 231 231 l 146 0 l 28 0 l 390 972 l 550 972 l 908 0 l 790 0 m 268 333 l 668 333 l 472 869 l 464 869 l 268 333 z "},"Â":{"ha":936,"x_min":28,"x_max":908,"o":"m 469 1197 l 389 1097 l 285 1097 l 415 1278 l 532 1278 l 663 1097 l 560 1097 l 478 1197 l 469 1197 m 790 0 l 706 231 l 231 231 l 146 0 l 28 0 l 390 972 l 550 972 l 908 0 l 790 0 m 268 333 l 668 333 l 472 869 l 464 869 l 268 333 z "},"Ã":{"ha":936,"x_min":28,"x_max":908,"o":"m 388 1179 q 335 1104 335 1179 l 251 1104 q 289 1224 251 1181 q 386 1268 326 1268 q 481 1231 424 1268 q 560 1193 538 1193 q 613 1268 613 1193 l 694 1268 q 658 1147 694 1192 q 563 1103 621 1103 q 468 1141 524 1103 q 388 1179 413 1179 m 790 0 l 706 231 l 231 231 l 146 0 l 28 0 l 390 972 l 550 972 l 908 0 l 790 0 m 268 333 l 668 333 l 472 869 l 464 869 l 268 333 z "},"Ä":{"ha":936,"x_min":28,"x_max":908,"o":"m 354 1114 q 303 1135 324 1114 q 282 1186 282 1156 q 303 1238 282 1217 q 354 1258 324 1258 q 406 1238 386 1258 q 426 1186 426 1217 q 406 1134 426 1154 q 354 1114 386 1114 m 588 1114 q 535 1134 556 1114 q 515 1186 515 1154 q 535 1238 515 1218 q 588 1258 556 1258 q 639 1238 618 1258 q 660 1186 660 1217 q 639 1135 660 1156 q 588 1114 618 1114 m 790 0 l 706 231 l 231 231 l 146 0 l 28 0 l 390 972 l 550 972 l 908 0 l 790 0 m 268 333 l 668 333 l 472 869 l 464 869 l 268 333 z "},"Å":{"ha":936,"x_min":28,"x_max":908,"o":"m 567 1098 q 549 1080 567 1098 q 475 1063 531 1063 q 383 1098 419 1063 q 347 1186 347 1133 q 383 1275 347 1240 q 474 1310 419 1310 q 567 1275 531 1310 q 603 1188 603 1240 q 567 1098 603 1133 m 474 1243 q 434 1228 449 1243 q 419 1186 419 1213 q 434 1144 419 1160 q 475 1129 449 1129 q 516 1144 501 1129 q 531 1188 531 1160 q 515 1228 531 1213 q 474 1243 500 1243 m 790 0 l 706 231 l 231 231 l 146 0 l 28 0 l 390 972 l 550 972 l 908 0 l 790 0 m 268 333 l 668 333 l 472 869 l 464 869 l 268 333 z "},"Æ":{"ha":1247,"x_min":28,"x_max":1178,"o":"m 28 0 l 546 972 l 1163 972 l 1163 869 l 721 869 l 721 546 l 1088 546 l 1088 444 l 721 444 l 721 101 l 1178 101 l 1178 0 l 608 0 l 608 231 l 271 231 l 150 0 l 28 0 m 324 333 l 608 333 l 608 869 l 600 869 l 324 333 z "},"Ç":{"ha":1075,"x_min":69,"x_max":1013,"o":"m 563 88 q 763 144 675 88 q 888 297 851 201 l 1013 297 q 862 83 969 167 q 611 -15 754 -1 l 590 -253 l 488 -253 l 518 -17 q 196 140 322 -1 q 69 486 69 282 q 210 846 69 701 q 563 990 351 990 q 843 903 722 990 q 1013 675 964 815 l 888 675 q 761 828 849 771 q 563 885 674 885 q 294 771 401 885 q 186 486 186 657 q 293 201 186 314 q 563 88 400 88 z "},"È":{"ha":778,"x_min":139,"x_max":708,"o":"m 407 1097 l 283 1282 l 411 1282 l 494 1097 l 407 1097 m 139 0 l 139 972 l 693 972 l 693 869 l 251 869 l 251 546 l 632 546 l 632 444 l 251 444 l 251 101 l 708 101 l 708 0 l 139 0 z "},"É":{"ha":778,"x_min":139,"x_max":708,"o":"m 372 1097 l 456 1282 l 583 1282 l 460 1097 l 372 1097 m 139 0 l 139 972 l 693 972 l 693 869 l 251 869 l 251 546 l 632 546 l 632 444 l 251 444 l 251 101 l 708 101 l 708 0 l 139 0 z "},"Ê":{"ha":778,"x_min":139,"x_max":708,"o":"m 239 1097 l 369 1278 l 486 1278 l 617 1097 l 514 1097 l 432 1197 l 424 1197 l 343 1097 l 239 1097 m 139 0 l 139 972 l 693 972 l 693 869 l 251 869 l 251 546 l 632 546 l 632 444 l 251 444 l 251 101 l 708 101 l 708 0 l 139 0 z "},"Ë":{"ha":778,"x_min":139,"x_max":708,"o":"m 308 1114 q 257 1135 278 1114 q 236 1186 236 1156 q 257 1238 236 1217 q 308 1258 278 1258 q 360 1238 340 1258 q 381 1186 381 1217 q 360 1134 381 1154 q 308 1114 340 1114 m 542 1114 q 490 1134 510 1114 q 469 1186 469 1154 q 490 1238 469 1218 q 542 1258 510 1258 q 593 1238 572 1258 q 614 1186 614 1217 q 593 1135 614 1156 q 542 1114 572 1114 m 139 0 l 139 972 l 693 972 l 693 869 l 251 869 l 251 546 l 632 546 l 632 444 l 251 444 l 251 101 l 708 101 l 708 0 l 139 0 z "},"Ì":{"ha":651,"x_min":125,"x_max":526,"o":"m 308 1097 l 185 1282 l 313 1282 l 396 1097 l 308 1097 m 125 0 l 125 97 l 269 97 l 269 875 l 125 875 l 125 972 l 526 972 l 526 875 l 382 875 l 382 97 l 526 97 l 526 0 l 125 0 z "},"Í":{"ha":651,"x_min":125,"x_max":526,"o":"m 274 1097 l 357 1282 l 485 1282 l 361 1097 l 274 1097 m 125 0 l 125 97 l 269 97 l 269 875 l 125 875 l 125 972 l 526 972 l 526 875 l 382 875 l 382 97 l 526 97 l 526 0 l 125 0 z "},"Î":{"ha":651,"x_min":125,"x_max":526,"o":"m 140 1097 l 271 1278 l 388 1278 l 518 1097 l 415 1097 l 333 1197 l 325 1197 l 244 1097 l 140 1097 m 125 0 l 125 97 l 269 97 l 269 875 l 125 875 l 125 972 l 526 972 l 526 875 l 382 875 l 382 97 l 526 97 l 526 0 l 125 0 z "},"Ï":{"ha":651,"x_min":125,"x_max":526,"o":"m 210 1114 q 158 1135 179 1114 q 138 1186 138 1156 q 158 1238 138 1217 q 210 1258 179 1258 q 262 1238 242 1258 q 282 1186 282 1217 q 262 1134 282 1154 q 210 1114 242 1114 m 443 1114 q 391 1134 411 1114 q 371 1186 371 1154 q 391 1238 371 1218 q 443 1258 411 1258 q 494 1238 474 1258 q 515 1186 515 1217 q 494 1135 515 1156 q 443 1114 474 1114 m 125 0 l 125 97 l 269 97 l 269 875 l 125 875 l 125 972 l 526 972 l 526 875 l 382 875 l 382 97 l 526 97 l 526 0 l 125 0 z "},"Ð":{"ha":1021,"x_min":111,"x_max":951,"o":"m 471 972 q 824 838 697 972 q 951 486 951 704 q 826 129 951 258 q 471 0 700 0 l 111 0 l 111 96 l 203 96 l 203 442 l 122 442 l 122 542 l 203 542 l 203 876 l 111 876 l 111 972 l 471 972 m 471 100 q 740 201 644 100 q 836 486 836 303 q 740 767 836 664 q 471 871 644 871 l 315 871 l 315 542 l 517 542 l 517 442 l 315 442 l 315 100 l 471 100 z "},"Ñ":{"ha":1021,"x_min":139,"x_max":882,"o":"m 619 1103 q 525 1141 581 1103 q 444 1179 469 1179 q 392 1104 392 1179 l 308 1104 q 346 1224 308 1181 q 443 1268 383 1268 q 538 1231 481 1268 q 617 1193 594 1193 q 669 1268 669 1193 l 751 1268 q 715 1147 751 1192 q 619 1103 678 1103 m 139 0 l 139 972 l 324 972 l 763 103 l 771 103 l 771 972 l 882 972 l 882 0 l 693 0 l 260 869 l 251 869 l 251 0 l 139 0 z "},"Ò":{"ha":1131,"x_min":69,"x_max":1061,"o":"m 542 1097 l 418 1282 l 546 1282 l 629 1097 l 542 1097 m 564 -18 q 211 126 353 -18 q 69 486 69 269 q 212 846 69 701 q 565 990 354 990 q 919 845 776 990 q 1061 486 1061 700 q 919 126 1061 271 q 564 -18 776 -18 m 294 201 q 349 144 294 201 q 565 88 403 88 q 836 201 728 88 q 944 486 944 314 q 835 771 944 657 q 565 885 726 885 q 295 771 404 885 q 186 486 186 657 q 294 201 186 314 z "},"Ó":{"ha":1131,"x_min":69,"x_max":1061,"o":"m 507 1097 l 590 1282 l 718 1282 l 594 1097 l 507 1097 m 564 -18 q 211 126 353 -18 q 69 486 69 269 q 212 846 69 701 q 565 990 354 990 q 919 845 776 990 q 1061 486 1061 700 q 919 126 1061 271 q 564 -18 776 -18 m 294 201 q 349 144 294 201 q 565 88 403 88 q 836 201 728 88 q 944 486 944 314 q 835 771 944 657 q 565 885 726 885 q 295 771 404 885 q 186 486 186 657 q 294 201 186 314 z "},"Ô":{"ha":1131,"x_min":69,"x_max":1061,"o":"m 374 1097 l 504 1278 l 621 1278 l 751 1097 l 649 1097 l 567 1197 l 558 1197 l 478 1097 l 374 1097 m 564 -18 q 211 126 353 -18 q 69 486 69 269 q 212 846 69 701 q 565 990 354 990 q 919 845 776 990 q 1061 486 1061 700 q 919 126 1061 271 q 564 -18 776 -18 m 294 201 q 349 144 294 201 q 565 88 403 88 q 836 201 728 88 q 944 486 944 314 q 835 771 944 657 q 565 885 726 885 q 295 771 404 885 q 186 486 186 657 q 294 201 186 314 z "},"Õ":{"ha":1131,"x_min":69,"x_max":1061,"o":"m 651 1103 q 557 1141 613 1103 q 476 1179 501 1179 q 424 1104 424 1179 l 340 1104 q 378 1224 340 1181 q 475 1268 415 1268 q 569 1231 513 1268 q 649 1193 626 1193 q 701 1268 701 1193 l 783 1268 q 747 1147 783 1192 q 651 1103 710 1103 m 564 -18 q 211 126 353 -18 q 69 486 69 269 q 212 846 69 701 q 565 990 354 990 q 919 845 776 990 q 1061 486 1061 700 q 919 126 1061 271 q 564 -18 776 -18 m 294 201 q 349 144 294 201 q 565 88 403 88 q 836 201 728 88 q 944 486 944 314 q 835 771 944 657 q 565 885 726 885 q 295 771 404 885 q 186 486 186 657 q 294 201 186 314 z "},"Ö":{"ha":1131,"x_min":69,"x_max":1061,"o":"m 443 1114 q 392 1135 413 1114 q 371 1186 371 1156 q 392 1238 371 1217 q 443 1258 413 1258 q 495 1238 475 1258 q 515 1186 515 1217 q 495 1134 515 1154 q 443 1114 475 1114 m 676 1114 q 624 1134 644 1114 q 604 1186 604 1154 q 624 1238 604 1218 q 676 1258 644 1258 q 728 1238 707 1258 q 749 1186 749 1217 q 728 1135 749 1156 q 676 1114 707 1114 m 564 -18 q 211 126 353 -18 q 69 486 69 269 q 212 846 69 701 q 565 990 354 990 q 919 845 776 990 q 1061 486 1061 700 q 919 126 1061 271 q 564 -18 776 -18 m 294 201 q 349 144 294 201 q 565 88 403 88 q 836 201 728 88 q 944 486 944 314 q 835 771 944 657 q 565 885 726 885 q 295 771 404 885 q 186 486 186 657 q 294 201 186 314 z "},"×":{"ha":619,"x_min":7,"x_max":613,"o":"m 547 106 l 308 363 l 72 107 l 7 172 l 244 428 l 7 685 l 72 751 l 310 496 l 547 751 l 611 686 l 372 429 l 613 171 l 547 106 z "},"Ø":{"ha":1131,"x_min":69,"x_max":1061,"o":"m 921 843 q 1061 486 1061 699 q 919 126 1061 271 q 564 -18 776 -18 q 300 54 421 -18 l 225 -42 l 142 28 l 215 121 q 69 486 69 267 q 212 846 69 701 q 565 990 354 990 q 838 911 714 990 l 906 999 l 989 929 l 921 843 m 186 486 q 286 211 186 322 l 769 825 q 565 885 679 885 q 295 771 404 885 q 186 486 186 657 m 565 88 q 836 201 728 88 q 944 486 944 314 q 851 754 944 643 l 369 142 q 565 88 456 88 z "},"Ù":{"ha":975,"x_min":125,"x_max":850,"o":"m 465 1097 l 342 1282 l 469 1282 l 553 1097 l 465 1097 m 488 -18 q 220 81 315 -18 q 125 349 125 181 l 125 972 l 238 972 l 238 350 q 302 156 238 226 q 488 86 367 86 q 674 157 608 86 q 739 351 739 228 l 739 972 l 850 972 l 850 350 q 754 83 850 183 q 488 -18 658 -18 z "},"Ú":{"ha":975,"x_min":125,"x_max":850,"o":"m 431 1097 l 514 1282 l 642 1282 l 518 1097 l 431 1097 m 488 -18 q 220 81 315 -18 q 125 349 125 181 l 125 972 l 238 972 l 238 350 q 302 156 238 226 q 488 86 367 86 q 674 157 608 86 q 739 351 739 228 l 739 972 l 850 972 l 850 350 q 754 83 850 183 q 488 -18 658 -18 z "},"Û":{"ha":975,"x_min":125,"x_max":850,"o":"m 297 1097 l 428 1278 l 544 1278 l 675 1097 l 572 1097 l 490 1197 l 482 1197 l 401 1097 l 297 1097 m 488 -18 q 220 81 315 -18 q 125 349 125 181 l 125 972 l 238 972 l 238 350 q 302 156 238 226 q 488 86 367 86 q 674 157 608 86 q 739 351 739 228 l 739 972 l 850 972 l 850 350 q 754 83 850 183 q 488 -18 658 -18 z "},"Ü":{"ha":975,"x_min":125,"x_max":850,"o":"m 367 1114 q 315 1135 336 1114 q 294 1186 294 1156 q 315 1238 294 1217 q 367 1258 336 1258 q 419 1238 399 1258 q 439 1186 439 1217 q 419 1134 439 1154 q 367 1114 399 1114 m 600 1114 q 548 1134 568 1114 q 528 1186 528 1154 q 548 1238 528 1218 q 600 1258 568 1258 q 651 1238 631 1258 q 672 1186 672 1217 q 651 1135 672 1156 q 600 1114 631 1114 m 488 -18 q 220 81 315 -18 q 125 349 125 181 l 125 972 l 238 972 l 238 350 q 302 156 238 226 q 488 86 367 86 q 674 157 608 86 q 739 351 739 228 l 739 972 l 850 972 l 850 350 q 754 83 850 183 q 488 -18 658 -18 z "},"Ý":{"ha":828,"x_min":28,"x_max":800,"o":"m 371 1097 l 454 1282 l 582 1282 l 458 1097 l 371 1097 m 358 0 l 358 429 l 28 972 l 154 972 l 407 540 l 415 540 l 668 972 l 800 972 l 469 429 l 469 0 l 358 0 z "},"Þ":{"ha":813,"x_min":139,"x_max":757,"o":"m 139 0 l 139 972 l 251 972 l 251 782 l 460 782 q 675 702 593 782 q 757 490 757 622 q 673 277 757 360 q 460 194 589 194 l 251 194 l 251 0 l 139 0 m 251 294 l 450 294 q 589 349 536 294 q 642 490 642 404 q 589 628 642 575 q 450 682 536 682 l 251 682 l 251 294 z "},"ß":{"ha":836,"x_min":125,"x_max":767,"o":"m 125 0 l 125 832 q 183 990 125 938 q 344 1042 242 1042 l 703 1042 l 703 901 l 453 629 l 453 621 q 671 538 575 621 q 767 314 767 456 q 667 85 767 169 q 418 0 567 0 l 339 0 l 339 97 l 414 97 q 587 152 519 97 q 654 314 654 207 q 587 475 654 421 q 414 529 519 529 l 339 529 l 339 642 l 600 933 l 600 942 l 343 942 q 260 915 286 942 q 235 831 235 889 l 235 0 l 125 0 z "},"à":{"ha":932,"x_min":69,"x_max":849,"o":"m 425 847 l 301 1032 l 429 1032 l 513 847 l 425 847 m 422 -18 q 168 88 267 -18 q 69 360 69 194 q 165 634 69 528 q 414 740 261 740 q 573 696 511 740 q 660 606 635 651 l 668 606 l 668 722 l 779 722 l 779 131 q 815 97 779 97 l 849 97 l 849 0 l 778 0 q 703 30 733 0 q 672 107 674 60 l 672 114 l 664 114 q 422 -18 582 -18 m 428 81 q 606 161 539 81 q 672 358 672 242 q 602 565 672 489 q 426 640 532 640 q 251 561 319 640 q 182 358 182 482 q 252 158 182 235 q 428 81 322 81 z "},"á":{"ha":932,"x_min":69,"x_max":849,"o":"m 390 847 l 474 1032 l 601 1032 l 478 847 l 390 847 m 422 -18 q 168 88 267 -18 q 69 360 69 194 q 165 634 69 528 q 414 740 261 740 q 573 696 511 740 q 660 606 635 651 l 668 606 l 668 722 l 779 722 l 779 131 q 815 97 779 97 l 849 97 l 849 0 l 778 0 q 703 30 733 0 q 672 107 674 60 l 672 114 l 664 114 q 422 -18 582 -18 m 428 81 q 606 161 539 81 q 672 358 672 242 q 602 565 672 489 q 426 640 532 640 q 251 561 319 640 q 182 358 182 482 q 252 158 182 235 q 428 81 322 81 z "},"â":{"ha":932,"x_min":69,"x_max":849,"o":"m 257 847 l 388 1028 l 504 1028 l 635 847 l 532 847 l 450 947 l 442 947 l 361 847 l 257 847 m 422 -18 q 168 88 267 -18 q 69 360 69 194 q 165 634 69 528 q 414 740 261 740 q 573 696 511 740 q 660 606 635 651 l 668 606 l 668 722 l 779 722 l 779 131 q 815 97 779 97 l 849 97 l 849 0 l 778 0 q 703 30 733 0 q 672 107 674 60 l 672 114 l 664 114 q 422 -18 582 -18 m 428 81 q 606 161 539 81 q 672 358 672 242 q 602 565 672 489 q 426 640 532 640 q 251 561 319 640 q 182 358 182 482 q 252 158 182 235 q 428 81 322 81 z "},"ã":{"ha":932,"x_min":69,"x_max":849,"o":"m 535 853 q 440 891 496 853 q 360 929 385 929 q 307 854 307 929 l 224 854 q 261 974 224 931 q 358 1018 299 1018 q 453 981 396 1018 q 532 943 510 943 q 585 1018 585 943 l 667 1018 q 630 897 667 942 q 535 853 593 853 m 422 -18 q 168 88 267 -18 q 69 360 69 194 q 165 634 69 528 q 414 740 261 740 q 573 696 511 740 q 660 606 635 651 l 668 606 l 668 722 l 779 722 l 779 131 q 815 97 779 97 l 849 97 l 849 0 l 778 0 q 703 30 733 0 q 672 107 674 60 l 672 114 l 664 114 q 422 -18 582 -18 m 428 81 q 606 161 539 81 q 672 358 672 242 q 602 565 672 489 q 426 640 532 640 q 251 561 319 640 q 182 358 182 482 q 252 158 182 235 q 428 81 322 81 z "},"ä":{"ha":932,"x_min":69,"x_max":849,"o":"m 326 864 q 275 885 296 864 q 254 936 254 906 q 275 988 254 967 q 326 1008 296 1008 q 378 988 358 1008 q 399 936 399 967 q 378 884 399 904 q 326 864 358 864 m 560 864 q 508 884 528 864 q 488 936 488 904 q 508 988 488 968 q 560 1008 528 1008 q 611 988 590 1008 q 632 936 632 967 q 611 885 632 906 q 560 864 590 864 m 422 -18 q 168 88 267 -18 q 69 360 69 194 q 165 634 69 528 q 414 740 261 740 q 573 696 511 740 q 660 606 635 651 l 668 606 l 668 722 l 779 722 l 779 131 q 815 97 779 97 l 849 97 l 849 0 l 778 0 q 703 30 733 0 q 672 107 674 60 l 672 114 l 664 114 q 422 -18 582 -18 m 428 81 q 606 161 539 81 q 672 358 672 242 q 602 565 672 489 q 426 640 532 640 q 251 561 319 640 q 182 358 182 482 q 252 158 182 235 q 428 81 322 81 z "},"å":{"ha":932,"x_min":69,"x_max":849,"o":"m 539 848 q 521 830 539 848 q 447 813 503 813 q 356 848 392 813 q 319 936 319 883 q 356 1025 319 990 q 446 1060 392 1060 q 539 1025 503 1060 q 575 938 575 990 q 539 848 575 883 m 406 894 q 414 887 406 894 q 447 879 421 879 q 488 894 474 879 q 503 938 503 910 q 488 978 503 963 q 446 993 472 993 q 406 978 421 993 q 392 936 392 963 q 406 894 392 910 m 422 -18 q 168 88 267 -18 q 69 360 69 194 q 165 634 69 528 q 414 740 261 740 q 573 696 511 740 q 660 606 635 651 l 668 606 l 668 722 l 779 722 l 779 131 q 815 97 779 97 l 849 97 l 849 0 l 778 0 q 703 30 733 0 q 672 107 674 60 l 672 114 l 664 114 q 422 -18 582 -18 m 428 81 q 606 161 539 81 q 672 358 672 242 q 602 565 672 489 q 426 640 532 640 q 251 561 319 640 q 182 358 182 482 q 252 158 182 235 q 428 81 322 81 z "},"æ":{"ha":1335,"x_min":69,"x_max":1265,"o":"m 338 -18 q 143 42 217 -18 q 69 201 69 101 q 140 359 69 299 q 333 419 210 419 l 575 419 l 575 472 q 524 592 575 546 q 383 638 472 638 q 249 596 299 638 q 189 486 200 554 l 90 511 q 181 676 103 613 q 385 740 258 740 q 647 603 574 740 l 656 603 q 922 740 744 740 q 1174 638 1083 740 q 1265 371 1265 536 l 1265 322 l 685 322 q 753 144 685 210 q 931 79 822 79 q 1070 122 1008 79 q 1149 238 1132 164 l 1256 213 q 1138 45 1225 108 q 929 -18 1051 -18 q 632 140 714 -18 l 624 140 q 338 -18 546 -18 m 688 419 l 1153 419 q 1082 584 1147 526 q 922 642 1017 642 q 762 580 831 642 q 688 419 693 518 m 350 83 q 517 148 458 83 q 575 296 575 213 l 575 322 l 343 322 q 224 290 265 322 q 182 201 182 258 q 227 116 182 149 q 350 83 272 83 z "},"ç":{"ha":846,"x_min":69,"x_max":776,"o":"m 776 238 q 673 65 751 132 q 490 -15 594 -1 l 469 -253 l 367 -253 l 397 -15 q 160 105 251 -1 q 69 361 69 211 q 175 631 69 522 q 439 740 281 740 q 652 672 560 740 q 774 485 744 603 l 665 460 q 589 590 651 540 q 442 640 526 640 q 256 560 328 640 q 183 361 183 481 q 257 160 183 239 q 444 82 331 82 q 592 132 529 82 q 668 263 654 182 l 776 238 z "},"è":{"ha":832,"x_min":69,"x_max":763,"o":"m 399 847 l 275 1032 l 403 1032 l 486 847 l 399 847 m 426 -18 q 167 86 264 -18 q 69 358 69 190 q 171 634 69 528 q 419 740 272 740 q 672 638 581 740 q 763 371 763 536 l 763 331 l 182 331 q 249 145 183 211 q 428 79 314 79 q 567 122 506 79 q 646 238 629 164 l 753 213 q 635 45 722 108 q 426 -18 549 -18 m 185 419 l 650 419 q 579 584 644 526 q 419 642 514 642 q 259 580 328 642 q 185 419 190 518 z "},"é":{"ha":832,"x_min":69,"x_max":763,"o":"m 364 847 l 447 1032 l 575 1032 l 451 847 l 364 847 m 426 -18 q 167 86 264 -18 q 69 358 69 190 q 171 634 69 528 q 419 740 272 740 q 672 638 581 740 q 763 371 763 536 l 763 331 l 182 331 q 249 145 183 211 q 428 79 314 79 q 567 122 506 79 q 646 238 629 164 l 753 213 q 635 45 722 108 q 426 -18 549 -18 m 185 419 l 650 419 q 579 584 644 526 q 419 642 514 642 q 259 580 328 642 q 185 419 190 518 z "},"ê":{"ha":832,"x_min":69,"x_max":763,"o":"m 231 847 l 361 1028 l 478 1028 l 608 847 l 506 847 l 424 947 l 415 947 l 335 847 l 231 847 m 426 -18 q 167 86 264 -18 q 69 358 69 190 q 171 634 69 528 q 419 740 272 740 q 672 638 581 740 q 763 371 763 536 l 763 331 l 182 331 q 249 145 183 211 q 428 79 314 79 q 567 122 506 79 q 646 238 629 164 l 753 213 q 635 45 722 108 q 426 -18 549 -18 m 185 419 l 650 419 q 579 584 644 526 q 419 642 514 642 q 259 580 328 642 q 185 419 190 518 z "},"ë":{"ha":832,"x_min":69,"x_max":763,"o":"m 300 864 q 249 885 269 864 q 228 936 228 906 q 249 988 228 967 q 300 1008 269 1008 q 352 988 332 1008 q 372 936 372 967 q 352 884 372 904 q 300 864 332 864 m 533 864 q 481 884 501 864 q 461 936 461 904 q 481 988 461 968 q 533 1008 501 1008 q 585 988 564 1008 q 606 936 606 967 q 585 885 606 906 q 533 864 564 864 m 426 -18 q 167 86 264 -18 q 69 358 69 190 q 171 634 69 528 q 419 740 272 740 q 672 638 581 740 q 763 371 763 536 l 763 331 l 182 331 q 249 145 183 211 q 428 79 314 79 q 567 122 506 79 q 646 238 629 164 l 753 213 q 635 45 722 108 q 426 -18 549 -18 m 185 419 l 650 419 q 579 584 644 526 q 419 642 514 642 q 259 580 328 642 q 185 419 190 518 z "},"ì":{"ha":454,"x_min":83,"x_max":329,"o":"m 213 847 l 89 1032 l 217 1032 l 300 847 l 213 847 m 219 0 l 219 629 l 83 629 l 83 722 l 329 722 l 329 0 l 219 0 z "},"í":{"ha":454,"x_min":83,"x_max":389,"o":"m 178 847 l 261 1032 l 389 1032 l 265 847 l 178 847 m 219 0 l 219 629 l 83 629 l 83 722 l 329 722 l 329 0 l 219 0 z "},"î":{"ha":454,"x_min":44,"x_max":422,"o":"m 44 847 l 175 1028 l 292 1028 l 422 847 l 319 847 l 238 947 l 229 947 l 149 847 l 44 847 m 219 0 l 219 629 l 83 629 l 83 722 l 329 722 l 329 0 l 219 0 z "},"ï":{"ha":454,"x_min":42,"x_max":419,"o":"m 114 864 q 63 885 83 864 q 42 936 42 906 q 63 988 42 967 q 114 1008 83 1008 q 166 988 146 1008 q 186 936 186 967 q 166 884 186 904 q 114 864 146 864 m 347 864 q 295 884 315 864 q 275 936 275 904 q 295 988 275 968 q 347 1008 315 1008 q 399 988 378 1008 q 419 936 419 967 q 399 885 419 906 q 347 864 378 864 m 219 0 l 219 629 l 83 629 l 83 722 l 329 722 l 329 0 l 219 0 z "},"ð":{"ha":857,"x_min":69,"x_max":788,"o":"m 424 -18 q 168 86 267 -18 q 69 344 69 190 q 169 598 69 499 q 415 697 268 697 q 575 647 515 697 l 583 647 q 506 740 553 692 q 424 810 458 788 l 200 722 l 200 807 l 350 868 q 199 960 283 915 l 269 1014 q 458 907 364 972 l 643 979 l 643 893 l 529 847 q 788 372 788 640 q 692 92 788 203 q 424 -18 597 -18 m 425 81 q 610 160 546 81 q 675 361 675 240 q 607 533 675 463 q 433 604 539 604 q 250 530 318 604 q 182 344 182 456 q 249 157 182 233 q 425 81 317 81 z "},"ñ":{"ha":844,"x_min":125,"x_max":733,"o":"m 538 853 q 443 891 499 853 q 363 929 388 929 q 310 854 310 929 l 226 854 q 264 974 226 931 q 361 1018 301 1018 q 456 981 399 1018 q 535 943 513 943 q 588 1018 588 943 l 669 1018 q 633 897 669 942 q 538 853 596 853 m 125 0 l 125 722 l 235 722 l 235 617 l 243 617 q 326 705 268 669 q 464 740 383 740 q 660 659 588 740 q 733 454 733 578 l 733 0 l 624 0 l 624 447 q 569 585 624 532 q 438 638 515 638 q 293 578 351 638 q 235 431 235 519 l 235 0 l 125 0 z "},"ò":{"ha":893,"x_min":69,"x_max":824,"o":"m 425 847 l 301 1032 l 429 1032 l 513 847 l 425 847 m 716 90 q 662 36 716 90 q 446 -18 608 -18 q 176 90 283 -18 q 69 361 69 197 q 178 633 69 525 q 447 740 286 740 q 717 632 610 740 q 824 361 824 524 q 716 90 824 199 m 446 82 q 637 161 563 82 q 711 361 711 240 q 637 561 711 482 q 446 640 563 640 q 256 560 331 640 q 182 361 182 481 q 256 160 182 239 q 446 82 331 82 z "},"ó":{"ha":893,"x_min":69,"x_max":824,"o":"m 390 847 l 474 1032 l 601 1032 l 478 847 l 390 847 m 716 90 q 662 36 716 90 q 446 -18 608 -18 q 176 90 283 -18 q 69 361 69 197 q 178 633 69 525 q 447 740 286 740 q 717 632 610 740 q 824 361 824 524 q 716 90 824 199 m 446 82 q 637 161 563 82 q 711 361 711 240 q 637 561 711 482 q 446 640 563 640 q 256 560 331 640 q 182 361 182 481 q 256 160 182 239 q 446 82 331 82 z "},"ô":{"ha":893,"x_min":69,"x_max":824,"o":"m 257 847 l 388 1028 l 504 1028 l 635 847 l 532 847 l 450 947 l 442 947 l 361 847 l 257 847 m 716 90 q 662 36 716 90 q 446 -18 608 -18 q 176 90 283 -18 q 69 361 69 197 q 178 633 69 525 q 447 740 286 740 q 717 632 610 740 q 824 361 824 524 q 716 90 824 199 m 446 82 q 637 161 563 82 q 711 361 711 240 q 637 561 711 482 q 446 640 563 640 q 256 560 331 640 q 182 361 182 481 q 256 160 182 239 q 446 82 331 82 z "},"õ":{"ha":893,"x_min":69,"x_max":824,"o":"m 535 853 q 440 891 496 853 q 360 929 385 929 q 307 854 307 929 l 224 854 q 261 974 224 931 q 358 1018 299 1018 q 453 981 396 1018 q 532 943 510 943 q 585 1018 585 943 l 667 1018 q 630 897 667 942 q 535 853 593 853 m 716 90 q 662 36 716 90 q 446 -18 608 -18 q 176 90 283 -18 q 69 361 69 197 q 178 633 69 525 q 447 740 286 740 q 717 632 610 740 q 824 361 824 524 q 716 90 824 199 m 446 82 q 637 161 563 82 q 711 361 711 240 q 637 561 711 482 q 446 640 563 640 q 256 560 331 640 q 182 361 182 481 q 256 160 182 239 q 446 82 331 82 z "},"ö":{"ha":893,"x_min":69,"x_max":824,"o":"m 326 864 q 275 885 296 864 q 254 936 254 906 q 275 988 254 967 q 326 1008 296 1008 q 378 988 358 1008 q 399 936 399 967 q 378 884 399 904 q 326 864 358 864 m 560 864 q 508 884 528 864 q 488 936 488 904 q 508 988 488 968 q 560 1008 528 1008 q 611 988 590 1008 q 632 936 632 967 q 611 885 632 906 q 560 864 590 864 m 716 90 q 662 36 716 90 q 446 -18 608 -18 q 176 90 283 -18 q 69 361 69 197 q 178 633 69 525 q 447 740 286 740 q 717 632 610 740 q 824 361 824 524 q 716 90 824 199 m 446 82 q 637 161 563 82 q 711 361 711 240 q 637 561 711 482 q 446 640 563 640 q 256 560 331 640 q 182 361 182 481 q 256 160 182 239 q 446 82 331 82 z "},"÷":{"ha":667,"x_min":7,"x_max":660,"o":"m 383 624 q 373 614 383 624 q 333 604 363 604 q 283 624 304 604 q 263 674 263 644 q 283 724 263 703 q 333 744 304 744 q 383 724 363 744 q 403 674 403 703 q 383 624 403 644 m 7 386 l 7 479 l 660 479 l 660 386 l 7 386 m 383 142 q 373 131 383 142 q 333 121 363 121 q 283 142 304 121 q 263 190 263 163 q 283 240 263 219 q 333 261 304 261 q 383 240 363 261 q 403 190 403 219 q 383 142 403 163 z "},"ø":{"ha":893,"x_min":69,"x_max":824,"o":"m 717 632 q 824 361 824 525 q 716 90 824 199 q 446 -18 608 -18 q 249 33 335 -18 l 196 -33 l 132 17 l 183 82 q 69 361 69 192 q 178 633 69 525 q 447 740 286 740 q 653 683 563 740 l 706 750 l 769 699 l 717 632 m 182 361 q 250 168 182 244 l 589 600 q 446 640 528 640 q 256 560 331 640 q 182 361 182 481 m 446 82 q 637 161 563 82 q 711 361 711 240 q 650 546 711 469 l 313 115 q 446 82 375 82 z "},"ù":{"ha":831,"x_min":111,"x_max":719,"o":"m 399 847 l 275 1032 l 403 1032 l 486 847 l 399 847 m 381 -18 q 184 63 257 -18 q 111 268 111 144 l 111 722 l 221 722 l 221 272 q 275 135 221 188 q 407 82 329 82 q 551 141 493 82 q 610 289 610 200 l 610 722 l 719 722 l 719 0 l 610 0 l 610 106 l 601 106 q 519 17 576 53 q 381 -18 461 -18 z "},"ú":{"ha":831,"x_min":111,"x_max":719,"o":"m 364 847 l 447 1032 l 575 1032 l 451 847 l 364 847 m 381 -18 q 184 63 257 -18 q 111 268 111 144 l 111 722 l 221 722 l 221 272 q 275 135 221 188 q 407 82 329 82 q 551 141 493 82 q 610 289 610 200 l 610 722 l 719 722 l 719 0 l 610 0 l 610 106 l 601 106 q 519 17 576 53 q 381 -18 461 -18 z "},"û":{"ha":831,"x_min":111,"x_max":719,"o":"m 231 847 l 361 1028 l 478 1028 l 608 847 l 506 847 l 424 947 l 415 947 l 335 847 l 231 847 m 381 -18 q 184 63 257 -18 q 111 268 111 144 l 111 722 l 221 722 l 221 272 q 275 135 221 188 q 407 82 329 82 q 551 141 493 82 q 610 289 610 200 l 610 722 l 719 722 l 719 0 l 610 0 l 610 106 l 601 106 q 519 17 576 53 q 381 -18 461 -18 z "},"ü":{"ha":831,"x_min":111,"x_max":719,"o":"m 300 864 q 249 885 269 864 q 228 936 228 906 q 249 988 228 967 q 300 1008 269 1008 q 352 988 332 1008 q 372 936 372 967 q 352 884 372 904 q 300 864 332 864 m 533 864 q 481 884 501 864 q 461 936 461 904 q 481 988 461 968 q 533 1008 501 1008 q 585 988 564 1008 q 606 936 606 967 q 585 885 606 906 q 533 864 564 864 m 381 -18 q 184 63 257 -18 q 111 268 111 144 l 111 722 l 221 722 l 221 272 q 275 135 221 188 q 407 82 329 82 q 551 141 493 82 q 610 289 610 200 l 610 722 l 719 722 l 719 0 l 610 0 l 610 106 l 601 106 q 519 17 576 53 q 381 -18 461 -18 z "},"ý":{"ha":772,"x_min":42,"x_max":731,"o":"m 338 847 l 421 1032 l 549 1032 l 425 847 l 338 847 m 83 -319 l 83 -219 l 164 -219 q 240 -199 213 -219 q 285 -135 268 -179 l 336 0 l 307 0 l 42 722 l 164 722 l 375 106 l 383 106 l 607 722 l 731 722 l 379 -183 q 299 -287 351 -254 q 160 -319 247 -319 l 83 -319 z "},"þ":{"ha":906,"x_min":125,"x_max":836,"o":"m 126 -324 l 125 1042 l 235 1042 l 235 608 l 243 608 q 486 740 329 740 q 738 634 640 740 q 836 363 836 528 q 740 88 836 194 q 492 -18 644 -18 q 331 25 392 -18 q 244 117 271 68 l 236 117 l 236 -324 l 126 -324 m 479 82 q 655 160 586 82 q 724 363 724 239 q 653 564 724 488 q 476 640 583 640 q 299 560 367 640 q 232 363 232 479 q 303 158 232 233 q 479 82 374 82 z "},"ÿ":{"ha":772,"x_min":42,"x_max":731,"o":"m 274 864 q 222 885 243 864 q 201 936 201 906 q 222 988 201 967 q 274 1008 243 1008 q 326 988 306 1008 q 346 936 346 967 q 326 884 346 904 q 274 864 306 864 m 507 864 q 455 884 475 864 q 435 936 435 904 q 455 988 435 968 q 507 1008 475 1008 q 558 988 538 1008 q 579 936 579 967 q 558 885 579 906 q 507 864 538 864 m 83 -319 l 83 -219 l 164 -219 q 240 -199 213 -219 q 285 -135 268 -179 l 336 0 l 307 0 l 42 722 l 164 722 l 375 106 l 383 106 l 607 722 l 731 722 l 379 -183 q 299 -287 351 -254 q 160 -319 247 -319 l 83 -319 z "},"Ā":{"ha":936,"x_min":28,"x_max":908,"o":"m 643 1224 l 643 1131 l 307 1131 l 307 1224 l 643 1224 m 790 0 l 706 231 l 231 231 l 146 0 l 28 0 l 390 972 l 550 972 l 908 0 l 790 0 m 268 333 l 668 333 l 472 869 l 464 869 l 268 333 z "},"ā":{"ha":932,"x_min":69,"x_max":849,"o":"m 279 881 l 279 974 l 615 974 l 615 881 l 279 881 m 422 -18 q 168 88 267 -18 q 69 360 69 194 q 165 634 69 528 q 414 740 261 740 q 573 696 511 740 q 660 606 635 651 l 668 606 l 668 722 l 779 722 l 779 131 q 815 97 779 97 l 849 97 l 849 0 l 778 0 q 703 30 733 0 q 672 107 674 60 l 672 114 l 664 114 q 422 -18 582 -18 m 428 81 q 606 161 539 81 q 672 358 672 242 q 602 565 672 489 q 426 640 532 640 q 251 561 319 640 q 182 358 182 482 q 252 158 182 235 q 428 81 322 81 z "},"Ă":{"ha":936,"x_min":28,"x_max":908,"o":"m 606 1145 q 583 1120 606 1145 q 475 1096 560 1096 q 344 1145 390 1096 q 299 1271 299 1194 l 386 1271 q 475 1172 386 1172 q 542 1199 521 1172 q 564 1271 564 1226 l 651 1271 q 606 1145 651 1194 m 790 0 l 706 231 l 231 231 l 146 0 l 28 0 l 390 972 l 550 972 l 908 0 l 790 0 m 268 333 l 668 333 l 472 869 l 464 869 l 268 333 z "},"ă":{"ha":932,"x_min":69,"x_max":849,"o":"m 578 895 q 555 870 578 895 q 447 846 532 846 q 317 895 363 846 q 271 1021 271 944 l 358 1021 q 447 922 358 922 q 515 949 493 922 q 536 1021 536 976 l 624 1021 q 578 895 624 944 m 422 -18 q 168 88 267 -18 q 69 360 69 194 q 165 634 69 528 q 414 740 261 740 q 573 696 511 740 q 660 606 635 651 l 668 606 l 668 722 l 779 722 l 779 131 q 815 97 779 97 l 849 97 l 849 0 l 778 0 q 703 30 733 0 q 672 107 674 60 l 672 114 l 664 114 q 422 -18 582 -18 m 428 81 q 606 161 539 81 q 672 358 672 242 q 602 565 672 489 q 426 640 532 640 q 251 561 319 640 q 182 358 182 482 q 252 158 182 235 q 428 81 322 81 z "},"Ą":{"ha":936,"x_min":28,"x_max":908,"o":"m 811 -122 q 863 -164 811 -164 l 908 -164 l 908 -253 l 842 -253 q 750 -224 789 -253 q 711 -142 711 -194 q 757 -44 711 -87 l 803 0 l 790 0 l 706 231 l 231 231 l 146 0 l 28 0 l 390 972 l 550 972 l 908 0 l 839 -69 q 811 -122 811 -97 m 268 333 l 668 333 l 472 869 l 464 869 l 268 333 z "},"ą":{"ha":932,"x_min":69,"x_max":849,"o":"m 849 0 l 779 -69 q 751 -122 751 -97 q 803 -164 751 -164 l 849 -164 l 849 -253 l 782 -253 q 690 -224 729 -253 q 651 -142 651 -194 q 697 -44 651 -87 l 743 0 l 778 0 q 703 30 733 0 q 672 107 674 60 l 672 114 l 664 114 q 422 -18 582 -18 q 168 88 267 -18 q 69 360 69 194 q 165 634 69 528 q 414 740 261 740 q 573 696 511 740 q 660 606 635 651 l 668 606 l 668 722 l 779 722 l 779 131 q 815 97 779 97 l 849 97 l 849 0 m 428 81 q 606 161 539 81 q 672 358 672 242 q 602 565 672 489 q 426 640 532 640 q 251 561 319 640 q 182 358 182 482 q 252 158 182 235 q 428 81 322 81 z "},"Ć":{"ha":1075,"x_min":69,"x_max":1013,"o":"m 504 1097 l 588 1282 l 715 1282 l 592 1097 l 504 1097 m 561 -18 q 210 126 350 -18 q 69 486 69 269 q 210 846 69 701 q 563 990 351 990 q 843 903 722 990 q 1013 675 964 815 l 888 675 q 761 828 849 771 q 563 885 674 885 q 294 771 401 885 q 186 486 186 657 q 293 201 186 314 q 563 88 400 88 q 763 144 675 88 q 888 297 851 201 l 1013 297 q 844 69 967 156 q 561 -18 722 -18 z "},"ć":{"ha":846,"x_min":69,"x_max":776,"o":"m 382 846 l 465 1031 l 593 1031 l 469 846 l 382 846 m 440 -18 q 174 90 278 -18 q 69 361 69 199 q 175 631 69 522 q 439 740 281 740 q 652 672 560 740 q 774 485 744 603 l 665 460 q 589 590 651 540 q 442 640 526 640 q 256 560 328 640 q 183 361 183 481 q 257 160 183 239 q 444 82 331 82 q 592 132 529 82 q 668 263 654 182 l 776 238 q 654 51 747 119 q 440 -18 561 -18 z "},"Ċ":{"ha":1075,"x_min":69,"x_max":1013,"o":"m 623 1126 q 611 1114 623 1126 q 565 1103 600 1103 q 508 1126 531 1103 q 486 1183 486 1149 q 508 1240 486 1217 q 565 1263 531 1263 q 623 1240 600 1263 q 646 1183 646 1217 q 623 1126 646 1149 m 561 -18 q 210 126 350 -18 q 69 486 69 269 q 210 846 69 701 q 563 990 351 990 q 843 903 722 990 q 1013 675 964 815 l 888 675 q 761 828 849 771 q 563 885 674 885 q 294 771 401 885 q 186 486 186 657 q 293 201 186 314 q 563 88 400 88 q 763 144 675 88 q 888 297 851 201 l 1013 297 q 844 69 967 156 q 561 -18 722 -18 z "},"ċ":{"ha":846,"x_min":69,"x_max":776,"o":"m 501 874 q 489 863 501 874 q 443 851 478 851 q 386 874 408 851 q 364 932 364 897 q 386 988 364 965 q 443 1011 408 1011 q 501 988 478 1011 q 524 932 524 965 q 501 874 524 897 m 440 -18 q 174 90 278 -18 q 69 361 69 199 q 175 631 69 522 q 439 740 281 740 q 652 672 560 740 q 774 485 744 603 l 665 460 q 589 590 651 540 q 442 640 526 640 q 256 560 328 640 q 183 361 183 481 q 257 160 183 239 q 444 82 331 82 q 592 132 529 82 q 668 263 654 182 l 776 238 q 654 51 747 119 q 440 -18 561 -18 z "},"Č":{"ha":1075,"x_min":69,"x_max":1013,"o":"m 503 1097 l 372 1278 l 476 1278 l 557 1178 l 565 1178 l 647 1278 l 750 1278 l 619 1097 l 503 1097 m 561 -18 q 210 126 350 -18 q 69 486 69 269 q 210 846 69 701 q 563 990 351 990 q 843 903 722 990 q 1013 675 964 815 l 888 675 q 761 828 849 771 q 563 885 674 885 q 294 771 401 885 q 186 486 186 657 q 293 201 186 314 q 563 88 400 88 q 763 144 675 88 q 888 297 851 201 l 1013 297 q 844 69 967 156 q 561 -18 722 -18 z "},"č":{"ha":846,"x_min":69,"x_max":776,"o":"m 381 846 l 250 1026 l 354 1026 l 435 926 l 443 926 l 525 1026 l 628 1026 l 497 846 l 381 846 m 440 -18 q 174 90 278 -18 q 69 361 69 199 q 175 631 69 522 q 439 740 281 740 q 652 672 560 740 q 774 485 744 603 l 665 460 q 589 590 651 540 q 442 640 526 640 q 256 560 328 640 q 183 361 183 481 q 257 160 183 239 q 444 82 331 82 q 592 132 529 82 q 668 263 654 182 l 776 238 q 654 51 747 119 q 440 -18 561 -18 z "},"Ď":{"ha":1021,"x_min":111,"x_max":951,"o":"m 421 1099 l 290 1279 l 394 1279 l 475 1179 l 483 1179 l 565 1279 l 668 1279 l 538 1099 l 421 1099 m 111 0 l 111 96 l 203 96 l 203 876 l 111 876 l 111 972 l 464 972 q 821 838 690 972 q 951 486 951 703 q 823 129 951 258 q 464 0 694 0 l 111 0 m 315 100 l 464 100 q 737 202 638 100 q 836 486 836 304 q 737 767 836 664 q 464 871 638 871 l 315 871 l 315 100 z "},"ď":{"ha":1011,"x_min":69,"x_max":1011,"o":"m 422 -18 q 169 88 268 -18 q 69 360 69 194 q 165 633 69 526 q 414 740 261 740 q 512 725 467 740 q 587 686 557 710 q 633 644 617 663 q 661 606 650 625 l 669 606 l 669 1042 l 779 1042 l 779 0 l 674 0 l 674 114 l 665 114 q 422 -18 575 -18 m 888 790 l 888 1042 l 1011 1042 l 978 790 l 888 790 m 429 81 q 606 161 539 81 q 674 358 674 242 q 603 565 674 489 q 426 640 532 640 q 251 561 319 640 q 182 358 182 482 q 252 158 182 235 q 429 81 322 81 z "},"Đ":{"ha":1021,"x_min":111,"x_max":951,"o":"m 471 972 q 824 838 697 972 q 951 486 951 704 q 826 129 951 258 q 471 0 700 0 l 111 0 l 111 96 l 203 96 l 203 442 l 122 442 l 122 542 l 203 542 l 203 876 l 111 876 l 111 972 l 471 972 m 471 100 q 740 201 644 100 q 836 486 836 303 q 740 767 836 664 q 471 871 644 871 l 315 871 l 315 542 l 517 542 l 517 442 l 315 442 l 315 100 l 471 100 z "},"đ":{"ha":890,"x_min":69,"x_max":874,"o":"m 874 915 l 874 826 l 779 826 l 779 0 l 674 0 l 674 114 l 665 114 q 422 -18 575 -18 q 169 88 268 -18 q 69 360 69 194 q 165 633 69 526 q 414 740 261 740 q 512 725 467 740 q 587 686 557 710 q 633 644 617 663 q 661 606 650 625 l 669 606 l 669 826 l 451 826 l 451 915 l 669 915 l 669 1042 l 779 1042 l 779 915 l 874 915 m 429 81 q 606 161 539 81 q 674 358 674 242 q 603 565 674 489 q 426 640 532 640 q 251 561 319 640 q 182 358 182 482 q 252 158 182 235 q 429 81 322 81 z "},"Ē":{"ha":778,"x_min":139,"x_max":708,"o":"m 261 1131 l 261 1224 l 597 1224 l 597 1131 l 261 1131 m 139 0 l 139 972 l 693 972 l 693 869 l 251 869 l 251 546 l 632 546 l 632 444 l 251 444 l 251 101 l 708 101 l 708 0 l 139 0 z "},"ē":{"ha":832,"x_min":69,"x_max":763,"o":"m 253 881 l 253 974 l 589 974 l 589 881 l 253 881 m 426 -18 q 167 86 264 -18 q 69 358 69 190 q 171 634 69 528 q 419 740 272 740 q 672 638 581 740 q 763 371 763 536 l 763 331 l 182 331 q 249 145 183 211 q 428 79 314 79 q 567 122 506 79 q 646 238 629 164 l 753 213 q 635 45 722 108 q 426 -18 549 -18 m 185 419 l 650 419 q 579 584 644 526 q 419 642 514 642 q 259 580 328 642 q 185 419 190 518 z "},"Ė":{"ha":778,"x_min":139,"x_max":708,"o":"m 491 1126 q 480 1114 491 1126 q 433 1103 468 1103 q 376 1126 399 1103 q 354 1183 354 1149 q 376 1240 354 1217 q 433 1263 399 1263 q 491 1240 468 1263 q 514 1183 514 1217 q 491 1126 514 1149 m 139 0 l 139 972 l 693 972 l 693 869 l 251 869 l 251 546 l 632 546 l 632 444 l 251 444 l 251 101 l 708 101 l 708 0 l 139 0 z "},"ė":{"ha":832,"x_min":69,"x_max":763,"o":"m 483 876 q 471 864 483 876 q 425 853 460 853 q 368 876 390 853 q 346 933 346 899 q 368 990 346 967 q 425 1013 390 1013 q 483 990 460 1013 q 506 933 506 967 q 483 876 506 899 m 426 -18 q 167 86 264 -18 q 69 358 69 190 q 171 634 69 528 q 419 740 272 740 q 672 638 581 740 q 763 371 763 536 l 763 331 l 182 331 q 249 145 183 211 q 428 79 314 79 q 567 122 506 79 q 646 238 629 164 l 753 213 q 635 45 722 108 q 426 -18 549 -18 m 185 419 l 650 419 q 579 584 644 526 q 419 642 514 642 q 259 580 328 642 q 185 419 190 518 z "},"Ę":{"ha":778,"x_min":139,"x_max":708,"o":"m 708 0 l 639 -69 q 611 -122 611 -97 q 663 -164 611 -164 l 708 -164 l 708 -253 l 642 -253 q 550 -224 589 -253 q 511 -142 511 -194 q 557 -44 511 -87 l 603 0 l 139 0 l 139 972 l 693 972 l 693 869 l 251 869 l 251 546 l 632 546 l 632 444 l 251 444 l 251 101 l 708 101 l 708 0 z "},"ę":{"ha":832,"x_min":69,"x_max":763,"o":"m 763 371 l 763 331 l 182 331 q 249 145 183 211 q 428 79 314 79 q 567 122 506 79 q 646 238 629 164 l 753 213 q 658 65 726 125 q 494 -12 590 4 l 438 -69 q 410 -122 410 -97 q 461 -164 410 -164 l 507 -164 l 507 -253 l 440 -253 q 349 -224 388 -253 q 310 -142 310 -194 q 356 -44 310 -87 l 385 -17 q 154 99 239 -3 q 69 358 69 201 q 171 634 69 528 q 419 740 272 740 q 672 638 581 740 q 763 371 763 536 m 185 419 l 650 419 q 579 584 644 526 q 419 642 514 642 q 259 580 328 642 q 185 419 190 518 z "},"Ě":{"ha":778,"x_min":139,"x_max":708,"o":"m 371 1097 l 240 1278 l 344 1278 l 425 1178 l 433 1178 l 515 1278 l 618 1278 l 488 1097 l 371 1097 m 139 0 l 139 972 l 693 972 l 693 869 l 251 869 l 251 546 l 632 546 l 632 444 l 251 444 l 251 101 l 708 101 l 708 0 l 139 0 z "},"ě":{"ha":832,"x_min":69,"x_max":763,"o":"m 363 847 l 232 1028 l 336 1028 l 417 928 l 425 928 l 507 1028 l 610 1028 l 479 847 l 363 847 m 426 -18 q 167 86 264 -18 q 69 358 69 190 q 171 634 69 528 q 419 740 272 740 q 672 638 581 740 q 763 371 763 536 l 763 331 l 182 331 q 249 145 183 211 q 428 79 314 79 q 567 122 506 79 q 646 238 629 164 l 753 213 q 635 45 722 108 q 426 -18 549 -18 m 185 419 l 650 419 q 579 584 644 526 q 419 642 514 642 q 259 580 328 642 q 185 419 190 518 z "},"Ğ":{"ha":1115,"x_min":69,"x_max":1046,"o":"m 697 1145 q 674 1120 697 1145 q 567 1096 651 1096 q 436 1145 482 1096 q 390 1271 390 1194 l 478 1271 q 567 1172 478 1172 q 634 1199 613 1172 q 656 1271 656 1226 l 743 1271 q 697 1145 743 1194 m 564 -18 q 211 126 353 -18 q 69 486 69 269 q 210 846 69 701 q 563 990 351 990 q 843 903 722 990 q 1013 675 964 815 l 888 675 q 761 828 849 771 q 563 885 674 885 q 294 771 401 885 q 186 486 186 657 q 294 201 186 314 q 565 88 403 88 q 783 153 688 88 q 913 357 878 219 l 615 357 l 615 456 l 1046 456 q 983 235 1029 329 q 870 87 938 140 q 726 8 803 33 q 564 -18 650 -18 z "},"ğ":{"ha":890,"x_min":69,"x_max":779,"o":"m 554 895 q 531 870 554 895 q 424 846 508 846 q 293 895 339 846 q 247 1021 247 944 l 335 1021 q 424 922 335 922 q 491 949 469 922 q 513 1021 513 976 l 600 1021 q 554 895 600 944 m 247 -319 l 247 -218 l 561 -218 q 644 -190 618 -218 q 669 -103 669 -161 l 669 117 l 661 117 q 574 25 635 68 q 414 -18 514 -18 q 165 88 261 -18 q 69 363 69 194 q 169 634 69 528 q 422 740 268 740 q 665 608 575 740 l 674 608 l 674 722 l 779 722 l 779 -114 q 560 -319 779 -319 l 247 -319 m 426 82 q 603 158 532 82 q 674 363 674 233 q 606 560 674 479 q 429 640 539 640 q 252 564 322 640 q 182 363 182 488 q 251 160 182 239 q 426 82 319 82 z "},"Ġ":{"ha":1115,"x_min":69,"x_max":1046,"o":"m 628 1126 q 617 1114 628 1126 q 571 1103 606 1103 q 514 1126 536 1103 q 492 1183 492 1149 q 514 1240 492 1217 q 571 1263 536 1263 q 628 1240 606 1263 q 651 1183 651 1217 q 628 1126 651 1149 m 564 -18 q 211 126 353 -18 q 69 486 69 269 q 210 846 69 701 q 563 990 351 990 q 843 903 722 990 q 1013 675 964 815 l 888 675 q 761 828 849 771 q 563 885 674 885 q 294 771 401 885 q 186 486 186 657 q 294 201 186 314 q 565 88 403 88 q 783 153 688 88 q 913 357 878 219 l 615 357 l 615 456 l 1046 456 q 983 235 1029 329 q 870 87 938 140 q 726 8 803 33 q 564 -18 650 -18 z "},"ġ":{"ha":890,"x_min":69,"x_max":779,"o":"m 485 876 q 474 864 485 876 q 428 853 463 853 q 371 876 393 853 q 349 933 349 899 q 371 990 349 967 q 428 1013 393 1013 q 485 990 463 1013 q 508 933 508 967 q 485 876 508 899 m 247 -319 l 247 -218 l 561 -218 q 644 -190 618 -218 q 669 -103 669 -161 l 669 117 l 661 117 q 574 25 635 68 q 414 -18 514 -18 q 165 88 261 -18 q 69 363 69 194 q 169 634 69 528 q 422 740 268 740 q 665 608 575 740 l 674 608 l 674 722 l 779 722 l 779 -114 q 560 -319 779 -319 l 247 -319 m 426 82 q 603 158 532 82 q 674 363 674 233 q 606 560 674 479 q 429 640 539 640 q 252 564 322 640 q 182 363 182 488 q 251 160 182 239 q 426 82 319 82 z "},"Ģ":{"ha":1115,"x_min":69,"x_max":1046,"o":"m 564 -18 q 211 126 353 -18 q 69 486 69 269 q 210 846 69 701 q 563 990 351 990 q 843 903 722 990 q 1013 675 964 815 l 888 675 q 761 828 849 771 q 563 885 674 885 q 294 771 401 885 q 186 486 186 657 q 294 201 186 314 q 565 88 403 88 q 783 153 688 88 q 913 357 878 219 l 615 357 l 615 456 l 1046 456 q 983 235 1029 329 q 870 87 938 140 q 726 8 803 33 q 564 -18 650 -18 m 490 -318 l 513 -83 l 622 -83 l 574 -318 l 490 -318 z "},"ģ":{"ha":890,"x_min":69,"x_max":779,"o":"m 503 1083 l 481 849 l 371 849 l 419 1083 l 503 1083 m 247 -319 l 247 -218 l 561 -218 q 644 -190 618 -218 q 669 -103 669 -161 l 669 117 l 661 117 q 574 25 635 68 q 414 -18 514 -18 q 165 88 261 -18 q 69 363 69 194 q 169 634 69 528 q 422 740 268 740 q 665 608 575 740 l 674 608 l 674 722 l 779 722 l 779 -114 q 560 -319 779 -319 l 247 -319 m 426 82 q 603 158 532 82 q 674 363 674 233 q 606 560 674 479 q 429 640 539 640 q 252 564 322 640 q 182 363 182 488 q 251 160 182 239 q 426 82 319 82 z "},"Ĥ":{"ha":1019,"x_min":139,"x_max":881,"o":"m 325 1097 l 456 1278 l 572 1278 l 703 1097 l 600 1097 l 518 1197 l 510 1197 l 429 1097 l 325 1097 m 139 0 l 139 972 l 251 972 l 251 546 l 768 546 l 768 972 l 881 972 l 881 0 l 768 0 l 768 443 l 251 443 l 251 0 l 139 0 z "},"ĥ":{"ha":850,"x_min":-1,"x_max":739,"o":"m -1 1097 l 129 1278 l 246 1278 l 376 1097 l 274 1097 l 192 1197 l 183 1197 l 103 1097 l -1 1097 m 125 0 l 125 1042 l 235 1042 l 235 617 l 243 617 q 327 705 268 669 q 467 740 386 740 q 665 658 590 740 q 739 454 739 576 l 739 0 l 629 0 l 629 447 q 574 585 629 532 q 440 638 518 638 q 295 581 356 638 q 235 439 235 525 l 235 0 l 125 0 z "},"Ħ":{"ha":1019,"x_min":65,"x_max":954,"o":"m 954 828 l 954 728 l 881 728 l 881 0 l 768 0 l 768 443 l 251 443 l 251 0 l 139 0 l 139 728 l 65 728 l 65 828 l 139 828 l 139 972 l 251 972 l 251 828 l 768 828 l 768 972 l 881 972 l 881 828 l 954 828 m 768 546 l 768 728 l 251 728 l 251 546 l 768 546 z "},"ħ":{"ha":850,"x_min":35,"x_max":739,"o":"m 467 740 q 665 658 590 740 q 739 454 739 576 l 739 0 l 629 0 l 629 447 q 574 585 629 532 q 440 638 518 638 q 295 581 356 638 q 235 439 235 525 l 235 0 l 125 0 l 125 826 l 35 826 l 35 915 l 125 915 l 125 1042 l 235 1042 l 235 915 l 457 915 l 457 826 l 235 826 l 235 617 l 243 617 q 327 705 268 669 q 467 740 386 740 z "},"Ī":{"ha":651,"x_min":125,"x_max":526,"o":"m 163 1131 l 163 1224 l 499 1224 l 499 1131 l 163 1131 m 125 0 l 125 97 l 269 97 l 269 875 l 125 875 l 125 972 l 526 972 l 526 875 l 382 875 l 382 97 l 526 97 l 526 0 l 125 0 z "},"ī":{"ha":454,"x_min":67,"x_max":403,"o":"m 67 881 l 67 974 l 403 974 l 403 881 l 67 881 m 219 0 l 219 629 l 83 629 l 83 722 l 329 722 l 329 0 l 219 0 z "},"Į":{"ha":651,"x_min":125,"x_max":526,"o":"m 526 875 l 382 875 l 382 97 l 526 97 l 526 0 l 457 -69 q 429 -122 429 -97 q 481 -164 429 -164 l 526 -164 l 526 -253 l 460 -253 q 368 -224 407 -253 q 329 -142 329 -194 q 375 -44 329 -87 l 421 0 l 125 0 l 125 97 l 269 97 l 269 875 l 125 875 l 125 972 l 526 972 l 526 875 z "},"į":{"ha":454,"x_min":83,"x_max":354,"o":"m 217 990 q 228 1001 217 990 q 274 1013 239 1013 q 331 990 308 1013 q 354 933 354 967 q 331 876 354 899 q 274 853 308 853 q 217 876 239 853 q 194 933 194 899 q 217 990 194 967 m 83 629 l 83 722 l 329 722 l 329 0 l 260 -69 q 232 -122 232 -97 q 283 -164 232 -164 l 329 -164 l 329 -253 l 263 -253 q 171 -224 210 -253 q 132 -142 132 -194 q 178 -44 132 -87 l 224 0 l 219 0 l 219 629 l 83 629 z "},"İ":{"ha":651,"x_min":125,"x_max":526,"o":"m 392 1126 q 381 1114 392 1126 q 335 1103 369 1103 q 278 1126 300 1103 q 256 1183 256 1149 q 278 1240 256 1217 q 335 1263 300 1263 q 392 1240 369 1263 q 415 1183 415 1217 q 392 1126 415 1149 m 125 0 l 125 97 l 269 97 l 269 875 l 125 875 l 125 972 l 526 972 l 526 875 l 382 875 l 382 97 l 526 97 l 526 0 l 125 0 z "},"ı":{"ha":454,"x_min":83,"x_max":329,"o":"m 219 0 l 219 629 l 83 629 l 83 722 l 329 722 l 329 0 l 219 0 z "},"Ĵ":{"ha":736,"x_min":28,"x_max":611,"o":"m 226 1097 l 357 1278 l 474 1278 l 604 1097 l 501 1097 l 419 1197 l 411 1197 l 331 1097 l 226 1097 m 315 -18 q 110 52 193 -18 q 28 256 28 122 l 140 256 q 188 131 140 175 q 319 86 235 86 q 458 146 417 86 q 499 297 499 206 l 499 869 l 207 869 l 207 972 l 611 972 l 611 300 q 595 182 611 236 q 547 81 579 128 q 454 8 514 35 q 315 -18 394 -18 z "},"ĵ":{"ha":458,"x_min":21,"x_max":422,"o":"m 44 847 l 175 1028 l 292 1028 l 422 847 l 319 847 l 238 947 l 229 947 l 149 847 l 44 847 m 21 -319 l 21 -222 l 129 -222 q 212 -197 186 -222 q 238 -112 238 -171 l 238 629 l 81 629 l 81 722 l 347 722 l 347 -114 q 128 -319 347 -319 l 21 -319 z "},"Ķ":{"ha":858,"x_min":139,"x_max":831,"o":"m 139 0 l 139 972 l 251 972 l 251 556 l 385 556 l 679 972 l 814 972 l 476 507 l 831 0 l 692 0 l 386 453 l 251 453 l 251 0 l 139 0 m 385 -318 l 407 -83 l 517 -83 l 468 -318 l 385 -318 z "},"ķ":{"ha":738,"x_min":125,"x_max":710,"o":"m 125 0 l 125 1042 l 235 1042 l 235 443 l 361 443 l 565 722 l 692 722 l 454 403 l 454 394 l 710 0 l 579 0 l 365 343 l 235 343 l 235 0 l 125 0 m 321 -318 l 343 -83 l 453 -83 l 404 -318 l 321 -318 z "},"ĸ":{"ha":738,"x_min":125,"x_max":710,"o":"m 125 0 l 125 722 l 235 722 l 235 443 l 361 443 l 565 722 l 692 722 l 454 403 l 454 394 l 710 0 l 579 0 l 365 343 l 235 343 l 235 0 l 125 0 z "},"Ĺ":{"ha":740,"x_min":139,"x_max":671,"o":"m 147 1097 l 231 1282 l 358 1282 l 235 1097 l 147 1097 m 139 0 l 139 972 l 251 972 l 251 101 l 671 101 l 671 0 l 139 0 z "},"ĺ":{"ha":540,"x_min":90,"x_max":492,"o":"m 199 1097 l 282 1282 l 410 1282 l 286 1097 l 199 1097 m 90 0 l 90 94 l 236 94 l 236 947 l 90 947 l 90 1042 l 346 1042 l 346 94 l 492 94 l 492 0 l 90 0 z "},"Ļ":{"ha":740,"x_min":139,"x_max":671,"o":"m 139 0 l 139 972 l 251 972 l 251 101 l 671 101 l 671 0 l 139 0 m 329 -318 l 351 -83 l 461 -83 l 413 -318 l 329 -318 z "},"ļ":{"ha":540,"x_min":90,"x_max":492,"o":"m 90 0 l 90 94 l 236 94 l 236 947 l 90 947 l 90 1042 l 346 1042 l 346 94 l 492 94 l 492 0 l 90 0 m 213 -318 l 235 -83 l 344 -83 l 296 -318 l 213 -318 z "},"Ľ":{"ha":740,"x_min":139,"x_max":671,"o":"m 139 0 l 139 972 l 251 972 l 251 101 l 671 101 l 671 0 l 139 0 m 479 721 l 479 972 l 603 972 l 569 721 l 479 721 z "},"ľ":{"ha":554,"x_min":90,"x_max":561,"o":"m 90 0 l 90 94 l 236 94 l 236 947 l 90 947 l 90 1042 l 346 1042 l 346 94 l 492 94 l 492 0 l 90 0 m 438 790 l 438 1042 l 561 1042 l 528 790 l 438 790 z "},"Ŀ":{"ha":833,"x_min":139,"x_max":671,"o":"m 139 0 l 139 972 l 251 972 l 251 101 l 671 101 l 671 0 l 139 0 m 561 478 q 549 466 561 478 q 506 454 538 454 q 451 478 474 454 q 428 533 428 501 q 451 588 428 565 q 506 611 474 611 q 561 588 538 611 q 585 533 585 565 q 561 478 585 501 z "},"ŀ":{"ha":778,"x_min":90,"x_max":635,"o":"m 90 0 l 90 94 l 236 94 l 236 947 l 90 947 l 90 1042 l 346 1042 l 346 94 l 492 94 l 492 0 l 90 0 m 611 478 q 599 466 611 478 q 556 454 588 454 q 501 478 524 454 q 478 533 478 501 q 501 588 478 565 q 556 611 524 611 q 611 588 588 611 q 635 533 635 565 q 611 478 635 501 z "},"Ł":{"ha":740,"x_min":39,"x_max":671,"o":"m 251 101 l 671 101 l 671 0 l 139 0 l 139 356 l 39 301 l 39 417 l 139 471 l 139 972 l 251 972 l 251 531 l 511 671 l 511 556 l 251 415 l 251 101 z "},"ł":{"ha":596,"x_min":111,"x_max":513,"o":"m 367 94 l 513 94 l 513 0 l 111 0 l 111 94 l 257 94 l 257 460 l 115 388 l 115 503 l 257 575 l 257 947 l 111 947 l 111 1042 l 367 1042 l 367 632 l 510 706 l 510 590 l 367 517 l 367 94 z "},"Ń":{"ha":1021,"x_min":139,"x_max":882,"o":"m 475 1097 l 558 1282 l 686 1282 l 563 1097 l 475 1097 m 139 0 l 139 972 l 324 972 l 763 103 l 771 103 l 771 972 l 882 972 l 882 0 l 693 0 l 260 869 l 251 869 l 251 0 l 139 0 z "},"ń":{"ha":844,"x_min":125,"x_max":733,"o":"m 393 847 l 476 1032 l 604 1032 l 481 847 l 393 847 m 125 0 l 125 722 l 235 722 l 235 617 l 243 617 q 326 705 268 669 q 464 740 383 740 q 660 659 588 740 q 733 454 733 578 l 733 0 l 624 0 l 624 447 q 569 585 624 532 q 438 638 515 638 q 293 578 351 638 q 235 431 235 519 l 235 0 l 125 0 z "},"Ņ":{"ha":1021,"x_min":139,"x_max":882,"o":"m 139 0 l 139 972 l 324 972 l 763 103 l 771 103 l 771 972 l 882 972 l 882 0 l 693 0 l 260 869 l 251 869 l 251 0 l 139 0 m 422 -318 l 444 -83 l 554 -83 l 506 -318 l 422 -318 z "},"ņ":{"ha":844,"x_min":125,"x_max":733,"o":"m 125 0 l 125 722 l 235 722 l 235 617 l 243 617 q 326 705 268 669 q 464 740 383 740 q 660 659 588 740 q 733 454 733 578 l 733 0 l 624 0 l 624 447 q 569 585 624 532 q 438 638 515 638 q 293 578 351 638 q 235 431 235 519 l 235 0 l 125 0 m 358 -318 l 381 -83 l 490 -83 l 442 -318 l 358 -318 z "},"Ň":{"ha":1021,"x_min":139,"x_max":882,"o":"m 474 1097 l 343 1278 l 447 1278 l 528 1178 l 536 1178 l 618 1278 l 721 1278 l 590 1097 l 474 1097 m 139 0 l 139 972 l 324 972 l 763 103 l 771 103 l 771 972 l 882 972 l 882 0 l 693 0 l 260 869 l 251 869 l 251 0 l 139 0 z "},"ň":{"ha":844,"x_min":125,"x_max":733,"o":"m 392 847 l 261 1028 l 365 1028 l 446 928 l 454 928 l 536 1028 l 639 1028 l 508 847 l 392 847 m 125 0 l 125 722 l 235 722 l 235 617 l 243 617 q 326 705 268 669 q 464 740 383 740 q 660 659 588 740 q 733 454 733 578 l 733 0 l 624 0 l 624 447 q 569 585 624 532 q 438 638 515 638 q 293 578 351 638 q 235 431 235 519 l 235 0 l 125 0 z "},"Ŋ":{"ha":1021,"x_min":139,"x_max":882,"o":"m 139 0 l 139 972 l 324 972 l 763 103 l 771 103 l 771 972 l 882 972 l 882 0 l 693 0 l 260 869 l 251 869 l 251 0 l 139 0 z "},"ŋ":{"ha":844,"x_min":125,"x_max":733,"o":"m 464 740 q 660 659 588 740 q 733 454 733 578 l 733 -114 q 514 -319 733 -319 l 407 -319 l 407 -222 l 515 -222 q 598 -197 572 -222 q 624 -112 624 -171 l 624 447 q 569 585 624 532 q 438 638 515 638 q 293 578 351 638 q 235 431 235 519 l 235 0 l 125 0 l 125 722 l 235 722 l 235 617 l 243 617 q 326 705 268 669 q 464 740 383 740 z "},"Ō":{"ha":1131,"x_min":69,"x_max":1061,"o":"m 396 1131 l 396 1224 l 732 1224 l 732 1131 l 396 1131 m 564 -18 q 211 126 353 -18 q 69 486 69 269 q 212 846 69 701 q 565 990 354 990 q 919 845 776 990 q 1061 486 1061 700 q 919 126 1061 271 q 564 -18 776 -18 m 294 201 q 349 144 294 201 q 565 88 403 88 q 836 201 728 88 q 944 486 944 314 q 835 771 944 657 q 565 885 726 885 q 295 771 404 885 q 186 486 186 657 q 294 201 186 314 z "},"ō":{"ha":893,"x_min":69,"x_max":824,"o":"m 279 881 l 279 974 l 615 974 l 615 881 l 279 881 m 716 90 q 662 36 716 90 q 446 -18 608 -18 q 176 90 283 -18 q 69 361 69 197 q 178 633 69 525 q 447 740 286 740 q 717 632 610 740 q 824 361 824 524 q 716 90 824 199 m 446 82 q 637 161 563 82 q 711 361 711 240 q 637 561 711 482 q 446 640 563 640 q 256 560 331 640 q 182 361 182 481 q 256 160 182 239 q 446 82 331 82 z "},"Ő":{"ha":1131,"x_min":69,"x_max":1061,"o":"m 403 1097 l 486 1294 l 614 1294 l 490 1097 l 403 1097 m 599 1097 l 682 1294 l 810 1294 l 686 1097 l 599 1097 m 564 -18 q 211 126 353 -18 q 69 486 69 269 q 212 846 69 701 q 565 990 354 990 q 919 845 776 990 q 1061 486 1061 700 q 919 126 1061 271 q 564 -18 776 -18 m 294 201 q 349 144 294 201 q 565 88 403 88 q 836 201 728 88 q 944 486 944 314 q 835 771 944 657 q 565 885 726 885 q 295 771 404 885 q 186 486 186 657 q 294 201 186 314 z "},"ő":{"ha":893,"x_min":69,"x_max":824,"o":"m 286 847 l 369 1044 l 497 1044 l 374 847 l 286 847 m 482 847 l 565 1044 l 693 1044 l 569 847 l 482 847 m 716 90 q 662 36 716 90 q 446 -18 608 -18 q 176 90 283 -18 q 69 361 69 197 q 178 633 69 525 q 447 740 286 740 q 717 632 610 740 q 824 361 824 524 q 716 90 824 199 m 446 82 q 637 161 563 82 q 711 361 711 240 q 637 561 711 482 q 446 640 563 640 q 256 560 331 640 q 182 361 182 481 q 256 160 182 239 q 446 82 331 82 z "},"Œ":{"ha":1514,"x_min":69,"x_max":1444,"o":"m 564 -18 q 211 126 353 -18 q 69 486 69 269 q 212 846 69 701 q 565 990 354 990 q 701 972 632 990 l 1429 972 l 1429 869 l 893 869 q 1057 546 1036 742 l 1385 546 l 1385 444 l 1060 444 q 892 101 1043 233 l 1444 101 l 1444 0 l 700 0 q 564 -18 631 -18 m 294 201 q 349 144 294 201 q 565 88 403 88 q 836 201 728 88 q 944 486 944 314 q 835 771 944 657 q 565 885 726 885 q 295 771 404 885 q 186 486 186 657 q 294 201 186 314 z "},"œ":{"ha":1472,"x_min":69,"x_max":1403,"o":"m 446 -18 q 176 90 283 -18 q 69 361 69 197 q 178 633 69 525 q 447 740 286 740 q 631 694 550 740 q 761 567 713 647 l 769 567 q 890 695 815 650 q 1060 740 965 740 q 1312 638 1221 740 q 1403 371 1403 536 l 1403 331 l 822 331 q 889 145 824 211 q 1068 79 954 79 q 1208 122 1146 79 q 1286 238 1269 164 l 1393 213 q 1276 45 1363 108 q 1067 -18 1189 -18 q 763 151 854 -18 l 754 151 q 625 28 706 74 q 446 -18 544 -18 m 825 419 l 1290 419 q 1219 584 1285 526 q 1060 642 1154 642 q 899 580 968 642 q 825 419 831 518 m 446 82 q 638 161 563 82 q 713 361 713 240 q 638 561 713 482 q 446 640 563 640 q 256 560 331 640 q 182 361 182 481 q 256 160 182 239 q 446 82 331 82 z "},"Ŕ":{"ha":850,"x_min":139,"x_max":794,"o":"m 371 1097 l 454 1282 l 582 1282 l 458 1097 l 371 1097 m 139 0 l 139 972 l 447 972 q 679 895 594 972 q 764 689 764 818 q 704 501 764 578 q 533 403 644 424 l 794 0 l 658 0 l 415 393 l 251 393 l 251 0 l 139 0 m 251 493 l 447 493 q 592 544 536 493 q 647 688 647 594 q 593 820 647 768 q 440 872 539 872 l 251 872 l 251 493 z "},"ŕ":{"ha":542,"x_min":125,"x_max":486,"o":"m 268 847 l 351 1032 l 479 1032 l 356 847 l 268 847 m 125 0 l 125 722 l 233 722 l 233 601 l 242 601 q 313 697 260 654 q 439 740 367 740 l 486 740 l 486 631 l 421 631 q 281 563 326 631 q 235 386 235 496 l 235 0 l 125 0 z "},"Ŗ":{"ha":850,"x_min":139,"x_max":794,"o":"m 139 0 l 139 972 l 447 972 q 679 895 594 972 q 764 689 764 818 q 704 501 764 578 q 533 403 644 424 l 794 0 l 658 0 l 415 393 l 251 393 l 251 0 l 139 0 m 251 493 l 447 493 q 592 544 536 493 q 647 688 647 594 q 593 820 647 768 q 440 872 539 872 l 251 872 l 251 493 m 357 -317 l 379 -82 l 489 -82 l 440 -317 l 357 -317 z "},"ŗ":{"ha":542,"x_min":125,"x_max":486,"o":"m 125 0 l 125 722 l 233 722 l 233 601 l 242 601 q 313 697 260 654 q 439 740 367 740 l 486 740 l 486 631 l 421 631 q 281 563 326 631 q 235 386 235 496 l 235 0 l 125 0 m 207 -318 l 229 -83 l 339 -83 l 290 -318 l 207 -318 z "},"Ř":{"ha":850,"x_min":139,"x_max":794,"o":"m 369 1097 l 239 1278 l 343 1278 l 424 1178 l 432 1178 l 514 1278 l 617 1278 l 486 1097 l 369 1097 m 139 0 l 139 972 l 447 972 q 679 895 594 972 q 764 689 764 818 q 704 501 764 578 q 533 403 644 424 l 794 0 l 658 0 l 415 393 l 251 393 l 251 0 l 139 0 m 251 493 l 447 493 q 592 544 536 493 q 647 688 647 594 q 593 820 647 768 q 440 872 539 872 l 251 872 l 251 493 z "},"ř":{"ha":542,"x_min":125,"x_max":514,"o":"m 267 847 l 136 1028 l 240 1028 l 321 928 l 329 928 l 411 1028 l 514 1028 l 383 847 l 267 847 m 125 0 l 125 722 l 233 722 l 233 601 l 242 601 q 313 697 260 654 q 439 740 367 740 l 486 740 l 486 631 l 421 631 q 281 563 326 631 q 235 386 235 496 l 235 0 l 125 0 z "},"Ś":{"ha":817,"x_min":63,"x_max":747,"o":"m 351 1097 l 435 1282 l 563 1282 l 439 1097 l 351 1097 m 410 -18 q 163 69 263 -18 q 63 289 63 156 l 175 289 q 240 144 175 203 q 414 86 306 86 q 572 131 511 86 q 633 250 633 175 q 578 378 633 333 q 443 440 522 422 q 285 480 364 458 q 151 563 207 501 q 96 731 96 624 q 181 915 96 839 q 407 990 265 990 q 630 919 533 990 q 726 708 726 847 l 611 708 q 558 840 611 793 q 406 888 504 888 q 258 842 308 888 q 208 731 208 796 q 238 642 208 678 q 315 589 268 607 q 420 557 363 571 q 535 524 478 543 q 640 477 593 506 q 717 392 688 449 q 747 257 747 336 q 656 60 747 139 q 410 -18 565 -18 z "},"ś":{"ha":735,"x_min":83,"x_max":644,"o":"m 310 847 l 393 1032 l 521 1032 l 397 847 l 310 847 m 364 -18 q 170 42 244 -18 q 83 200 96 101 l 183 225 q 238 115 189 153 q 369 78 286 78 q 493 113 449 78 q 538 204 538 147 q 493 288 538 260 q 385 328 449 317 q 258 355 322 340 q 150 415 194 369 q 106 539 106 460 q 178 685 106 629 q 367 740 251 740 q 541 686 465 740 q 629 538 617 632 l 533 510 q 479 609 526 572 q 360 646 432 646 q 252 616 293 646 q 211 539 211 586 q 256 464 211 489 q 364 428 300 439 q 492 403 428 418 q 600 340 556 388 q 644 210 644 293 q 567 44 644 107 q 364 -18 490 -18 z "},"Ş":{"ha":817,"x_min":63,"x_max":747,"o":"m 747 257 q 672 74 747 150 q 465 -15 597 -1 l 444 -253 l 342 -253 l 372 -17 q 151 79 239 -6 q 63 289 63 164 l 175 289 q 240 144 175 203 q 414 86 306 86 q 572 131 511 86 q 633 250 633 175 q 578 378 633 333 q 443 440 522 422 q 285 480 364 458 q 151 563 207 501 q 96 731 96 624 q 181 915 96 839 q 407 990 265 990 q 630 919 533 990 q 726 708 726 847 l 611 708 q 558 840 611 793 q 406 888 504 888 q 258 842 308 888 q 208 731 208 796 q 238 642 208 678 q 315 589 268 607 q 420 557 363 571 q 535 524 478 543 q 640 477 593 506 q 717 392 688 449 q 747 257 747 336 z "},"ş":{"ha":735,"x_min":83,"x_max":644,"o":"m 644 210 q 582 58 644 118 q 414 -15 519 -3 l 393 -253 l 290 -253 l 321 -15 q 157 52 219 -6 q 83 200 94 110 l 183 225 q 238 115 189 153 q 369 78 286 78 q 493 113 449 78 q 538 204 538 147 q 493 288 538 260 q 385 328 449 317 q 258 355 322 340 q 150 415 194 369 q 106 539 106 460 q 178 685 106 629 q 367 740 251 740 q 541 686 465 740 q 629 538 617 632 l 533 510 q 479 609 526 572 q 360 646 432 646 q 252 616 293 646 q 211 539 211 586 q 256 464 211 489 q 364 428 300 439 q 492 403 428 418 q 600 340 556 388 q 644 210 644 293 z "},"Š":{"ha":817,"x_min":63,"x_max":747,"o":"m 350 1097 l 219 1278 l 324 1278 l 404 1178 l 413 1178 l 494 1278 l 597 1278 l 467 1097 l 350 1097 m 410 -18 q 163 69 263 -18 q 63 289 63 156 l 175 289 q 240 144 175 203 q 414 86 306 86 q 572 131 511 86 q 633 250 633 175 q 578 378 633 333 q 443 440 522 422 q 285 480 364 458 q 151 563 207 501 q 96 731 96 624 q 181 915 96 839 q 407 990 265 990 q 630 919 533 990 q 726 708 726 847 l 611 708 q 558 840 611 793 q 406 888 504 888 q 258 842 308 888 q 208 731 208 796 q 238 642 208 678 q 315 589 268 607 q 420 557 363 571 q 535 524 478 543 q 640 477 593 506 q 717 392 688 449 q 747 257 747 336 q 656 60 747 139 q 410 -18 565 -18 z "},"š":{"ha":735,"x_min":83,"x_max":644,"o":"m 308 847 l 178 1028 l 282 1028 l 363 928 l 371 928 l 453 1028 l 556 1028 l 425 847 l 308 847 m 364 -18 q 170 42 244 -18 q 83 200 96 101 l 183 225 q 238 115 189 153 q 369 78 286 78 q 493 113 449 78 q 538 204 538 147 q 493 288 538 260 q 385 328 449 317 q 258 355 322 340 q 150 415 194 369 q 106 539 106 460 q 178 685 106 629 q 367 740 251 740 q 541 686 465 740 q 629 538 617 632 l 533 510 q 479 609 526 572 q 360 646 432 646 q 252 616 293 646 q 211 539 211 586 q 256 464 211 489 q 364 428 300 439 q 492 403 428 418 q 600 340 556 388 q 644 210 644 293 q 567 44 644 107 q 364 -18 490 -18 z "},"Ţ":{"ha":763,"x_min":42,"x_max":721,"o":"m 325 0 l 325 869 l 42 869 l 42 972 l 721 972 l 721 869 l 438 869 l 438 0 l 325 0 m 303 -318 l 325 -83 l 435 -83 l 386 -318 l 303 -318 z "},"ţ":{"ha":600,"x_min":56,"x_max":524,"o":"m 411 0 q 192 206 192 0 l 192 629 l 56 629 l 56 722 l 199 722 l 199 932 l 301 932 l 301 722 l 524 722 l 524 629 l 301 629 l 301 207 q 327 122 301 149 q 410 96 353 96 l 514 96 l 514 0 l 411 0 m 288 -318 l 310 -83 l 419 -83 l 371 -318 l 288 -318 z "},"Ť":{"ha":763,"x_min":42,"x_max":721,"o":"m 331 1097 l 200 1278 l 304 1278 l 385 1178 l 393 1178 l 475 1278 l 578 1278 l 447 1097 l 331 1097 m 325 0 l 325 869 l 42 869 l 42 972 l 721 972 l 721 869 l 438 869 l 438 0 l 325 0 z "},"ť":{"ha":600,"x_min":56,"x_max":596,"o":"m 472 790 l 472 1042 l 596 1042 l 563 790 l 472 790 m 411 0 q 192 206 192 0 l 192 629 l 56 629 l 56 722 l 199 722 l 199 932 l 301 932 l 301 722 l 524 722 l 524 629 l 301 629 l 301 207 q 327 122 301 149 q 410 96 353 96 l 514 96 l 514 0 l 411 0 z "},"Ŧ":{"ha":763,"x_min":42,"x_max":721,"o":"m 721 869 l 438 869 l 438 576 l 647 576 l 647 479 l 438 479 l 438 0 l 325 0 l 325 479 l 115 479 l 115 576 l 325 576 l 325 869 l 42 869 l 42 972 l 721 972 l 721 869 z "},"ŧ":{"ha":600,"x_min":56,"x_max":524,"o":"m 524 629 l 301 629 l 301 490 l 504 490 l 504 401 l 301 401 l 301 207 q 327 122 301 149 q 410 96 353 96 l 514 96 l 514 0 l 411 0 q 192 206 192 0 l 192 401 l 61 401 l 61 490 l 192 490 l 192 629 l 56 629 l 56 722 l 199 722 l 199 932 l 301 932 l 301 722 l 524 722 l 524 629 z "},"Ū":{"ha":975,"x_min":125,"x_max":850,"o":"m 319 1131 l 319 1224 l 656 1224 l 656 1131 l 319 1131 m 488 -18 q 220 81 315 -18 q 125 349 125 181 l 125 972 l 238 972 l 238 350 q 302 156 238 226 q 488 86 367 86 q 674 157 608 86 q 739 351 739 228 l 739 972 l 850 972 l 850 350 q 754 83 850 183 q 488 -18 658 -18 z "},"ū":{"ha":831,"x_min":111,"x_max":719,"o":"m 253 881 l 253 974 l 589 974 l 589 881 l 253 881 m 381 -18 q 184 63 257 -18 q 111 268 111 144 l 111 722 l 221 722 l 221 272 q 275 135 221 188 q 407 82 329 82 q 551 141 493 82 q 610 289 610 200 l 610 722 l 719 722 l 719 0 l 610 0 l 610 106 l 601 106 q 519 17 576 53 q 381 -18 461 -18 z "},"Ů":{"ha":975,"x_min":125,"x_max":850,"o":"m 579 1098 q 561 1080 579 1098 q 488 1063 543 1063 q 396 1098 432 1063 q 360 1186 360 1133 q 396 1275 360 1240 q 486 1310 432 1310 q 579 1275 543 1310 q 615 1188 615 1240 q 579 1098 615 1133 m 447 1144 q 454 1137 447 1144 q 488 1129 461 1129 q 528 1144 514 1129 q 543 1188 543 1160 q 528 1228 543 1213 q 486 1243 513 1243 q 447 1228 461 1243 q 432 1186 432 1213 q 447 1144 432 1160 m 488 -18 q 220 81 315 -18 q 125 349 125 181 l 125 972 l 238 972 l 238 350 q 302 156 238 226 q 488 86 367 86 q 674 157 608 86 q 739 351 739 228 l 739 972 l 850 972 l 850 350 q 754 83 850 183 q 488 -18 658 -18 z "},"ů":{"ha":831,"x_min":111,"x_max":719,"o":"m 513 848 q 494 830 513 848 q 421 813 476 813 q 329 848 365 813 q 293 936 293 883 q 329 1025 293 990 q 419 1060 365 1060 q 513 1025 476 1060 q 549 938 549 990 q 513 848 549 883 m 380 894 q 387 887 380 894 q 421 879 394 879 q 462 894 447 879 q 476 938 476 910 q 461 978 476 963 q 419 993 446 993 q 380 978 394 993 q 365 936 365 963 q 380 894 365 910 m 381 -18 q 184 63 257 -18 q 111 268 111 144 l 111 722 l 221 722 l 221 272 q 275 135 221 188 q 407 82 329 82 q 551 141 493 82 q 610 289 610 200 l 610 722 l 719 722 l 719 0 l 610 0 l 610 106 l 601 106 q 519 17 576 53 q 381 -18 461 -18 z "},"Ű":{"ha":975,"x_min":125,"x_max":850,"o":"m 326 1097 l 410 1294 l 538 1294 l 414 1097 l 326 1097 m 522 1097 l 606 1294 l 733 1294 l 610 1097 l 522 1097 m 488 -18 q 220 81 315 -18 q 125 349 125 181 l 125 972 l 238 972 l 238 350 q 302 156 238 226 q 488 86 367 86 q 674 157 608 86 q 739 351 739 228 l 739 972 l 850 972 l 850 350 q 754 83 850 183 q 488 -18 658 -18 z "},"ű":{"ha":831,"x_min":111,"x_max":719,"o":"m 260 847 l 343 1044 l 471 1044 l 347 847 l 260 847 m 456 847 l 539 1044 l 667 1044 l 543 847 l 456 847 m 381 -18 q 184 63 257 -18 q 111 268 111 144 l 111 722 l 221 722 l 221 272 q 275 135 221 188 q 407 82 329 82 q 551 141 493 82 q 610 289 610 200 l 610 722 l 719 722 l 719 0 l 610 0 l 610 106 l 601 106 q 519 17 576 53 q 381 -18 461 -18 z "},"Ų":{"ha":975,"x_min":125,"x_max":850,"o":"m 739 972 l 850 972 l 850 350 q 779 112 850 207 q 579 -10 708 17 l 519 -69 q 492 -122 492 -97 q 543 -164 492 -164 l 589 -164 l 589 -253 l 522 -253 q 431 -224 469 -253 q 392 -142 392 -194 q 438 -44 392 -87 l 465 -18 q 214 88 303 -11 q 125 349 125 186 l 125 972 l 238 972 l 238 350 q 302 156 238 226 q 488 86 367 86 q 674 157 608 86 q 739 351 739 228 l 739 972 z "},"ų":{"ha":831,"x_min":111,"x_max":725,"o":"m 628 -122 q 679 -164 628 -164 l 725 -164 l 725 -253 l 658 -253 q 567 -224 606 -253 q 528 -142 528 -194 q 574 -44 528 -87 l 619 0 l 610 0 l 610 106 l 601 106 q 519 17 576 53 q 381 -18 461 -18 q 184 63 257 -18 q 111 268 111 144 l 111 722 l 221 722 l 221 272 q 275 135 221 188 q 407 82 329 82 q 551 141 493 82 q 610 289 610 200 l 610 722 l 719 722 l 719 0 l 725 0 l 656 -69 q 628 -122 628 -97 z "},"Ŵ":{"ha":1289,"x_min":28,"x_max":1261,"o":"m 457 1097 l 588 1278 l 704 1278 l 835 1097 l 732 1097 l 650 1197 l 642 1197 l 561 1097 l 457 1097 m 263 0 l 28 972 l 149 972 l 347 103 l 356 103 l 560 972 l 729 972 l 933 103 l 942 103 l 1140 972 l 1261 972 l 1026 0 l 849 0 l 649 869 l 640 869 l 440 0 l 263 0 z "},"ŵ":{"ha":1197,"x_min":42,"x_max":1156,"o":"m 413 847 l 543 1028 l 660 1028 l 790 847 l 688 847 l 606 947 l 597 947 l 517 847 l 413 847 m 267 0 l 42 722 l 161 722 l 338 103 l 346 103 l 522 722 l 675 722 l 850 103 l 858 103 l 1036 722 l 1156 722 l 929 0 l 776 0 l 603 619 l 594 619 l 419 0 l 267 0 z "},"Ŷ":{"ha":828,"x_min":28,"x_max":800,"o":"m 238 1097 l 368 1278 l 485 1278 l 615 1097 l 513 1097 l 431 1197 l 422 1197 l 342 1097 l 238 1097 m 358 0 l 358 429 l 28 972 l 154 972 l 407 540 l 415 540 l 668 972 l 800 972 l 469 429 l 469 0 l 358 0 z "},"ŷ":{"ha":772,"x_min":42,"x_max":731,"o":"m 204 847 l 335 1028 l 451 1028 l 582 847 l 479 847 l 397 947 l 389 947 l 308 847 l 204 847 m 83 -319 l 83 -219 l 164 -219 q 240 -199 213 -219 q 285 -135 268 -179 l 336 0 l 307 0 l 42 722 l 164 722 l 375 106 l 383 106 l 607 722 l 731 722 l 379 -183 q 299 -287 351 -254 q 160 -319 247 -319 l 83 -319 z "},"Ÿ":{"ha":828,"x_min":28,"x_max":800,"o":"m 307 1114 q 256 1135 276 1114 q 235 1186 235 1156 q 256 1238 235 1217 q 307 1258 276 1258 q 359 1238 339 1258 q 379 1186 379 1217 q 359 1134 379 1154 q 307 1114 339 1114 m 540 1114 q 488 1134 508 1114 q 468 1186 468 1154 q 488 1238 468 1218 q 540 1258 508 1258 q 592 1238 571 1258 q 613 1186 613 1217 q 592 1135 613 1156 q 540 1114 571 1114 m 358 0 l 358 429 l 28 972 l 154 972 l 407 540 l 415 540 l 668 972 l 800 972 l 469 429 l 469 0 l 358 0 z "},"Ź":{"ha":860,"x_min":69,"x_max":790,"o":"m 368 1097 l 451 1282 l 579 1282 l 456 1097 l 368 1097 m 69 0 l 69 153 l 685 863 l 685 871 l 88 871 l 88 972 l 788 972 l 788 819 l 172 110 l 172 101 l 790 101 l 790 0 l 69 0 z "},"ź":{"ha":717,"x_min":83,"x_max":633,"o":"m 294 847 l 378 1032 l 506 1032 l 382 847 l 294 847 m 83 0 l 83 135 l 524 621 l 524 629 l 96 629 l 96 722 l 626 722 l 626 588 l 186 101 l 186 93 l 633 93 l 633 0 l 83 0 z "},"Ż":{"ha":860,"x_min":69,"x_max":790,"o":"m 487 1126 q 475 1114 487 1126 q 429 1103 464 1103 q 372 1126 394 1103 q 350 1183 350 1149 q 372 1240 350 1217 q 429 1263 394 1263 q 487 1240 464 1263 q 510 1183 510 1217 q 487 1126 510 1149 m 69 0 l 69 153 l 685 863 l 685 871 l 88 871 l 88 972 l 788 972 l 788 819 l 172 110 l 172 101 l 790 101 l 790 0 l 69 0 z "},"ż":{"ha":717,"x_min":83,"x_max":633,"o":"m 413 876 q 402 864 413 876 q 356 853 390 853 q 299 876 321 853 q 276 933 276 899 q 299 990 276 967 q 356 1013 321 1013 q 413 990 390 1013 q 436 933 436 967 q 413 876 436 899 m 83 0 l 83 135 l 524 621 l 524 629 l 96 629 l 96 722 l 626 722 l 626 588 l 186 101 l 186 93 l 633 93 l 633 0 l 83 0 z "},"Ž":{"ha":860,"x_min":69,"x_max":790,"o":"m 367 1097 l 236 1278 l 340 1278 l 421 1178 l 429 1178 l 511 1278 l 614 1278 l 483 1097 l 367 1097 m 69 0 l 69 153 l 685 863 l 685 871 l 88 871 l 88 972 l 788 972 l 788 819 l 172 110 l 172 101 l 790 101 l 790 0 l 69 0 z "},"ž":{"ha":717,"x_min":83,"x_max":633,"o":"m 293 847 l 163 1028 l 267 1028 l 347 928 l 356 928 l 438 1028 l 540 1028 l 410 847 l 293 847 m 83 0 l 83 135 l 524 621 l 524 629 l 96 629 l 96 722 l 626 722 l 626 588 l 186 101 l 186 93 l 633 93 l 633 0 l 83 0 z "},"ƒ":{"ha":714,"x_min":-14,"x_max":638,"o":"m -14 -267 l -1 -171 l 64 -171 q 158 -143 125 -171 q 200 -47 190 -115 l 276 488 l 176 488 l 176 581 l 289 581 l 318 785 q 564 983 346 983 l 638 983 l 625 888 l 560 888 q 466 860 499 888 q 424 764 433 832 l 399 581 l 543 581 l 543 488 l 386 488 l 306 -68 q 60 -267 278 -267 l -14 -267 z "},"Ș":{"ha":817,"x_min":63,"x_max":747,"o":"m 410 -18 q 163 69 263 -18 q 63 289 63 156 l 175 289 q 240 144 175 203 q 414 86 306 86 q 572 131 511 86 q 633 250 633 175 q 578 378 633 333 q 443 440 522 422 q 285 480 364 458 q 151 563 207 501 q 96 731 96 624 q 181 915 96 839 q 407 990 265 990 q 630 919 533 990 q 726 708 726 847 l 611 708 q 558 840 611 793 q 406 888 504 888 q 258 842 308 888 q 208 731 208 796 q 238 642 208 678 q 315 589 268 607 q 420 557 363 571 q 535 524 478 543 q 640 477 593 506 q 717 392 688 449 q 747 257 747 336 q 656 60 747 139 q 410 -18 565 -18 m 342 -318 l 364 -83 l 474 -83 l 425 -318 l 342 -318 z "},"ș":{"ha":735,"x_min":83,"x_max":644,"o":"m 364 -18 q 170 42 244 -18 q 83 200 96 101 l 183 225 q 238 115 189 153 q 369 78 286 78 q 493 113 449 78 q 538 204 538 147 q 493 288 538 260 q 385 328 449 317 q 258 355 322 340 q 150 415 194 369 q 106 539 106 460 q 178 685 106 629 q 367 740 251 740 q 541 686 465 740 q 629 538 617 632 l 533 510 q 479 609 526 572 q 360 646 432 646 q 252 616 293 646 q 211 539 211 586 q 256 464 211 489 q 364 428 300 439 q 492 403 428 418 q 600 340 556 388 q 644 210 644 293 q 567 44 644 107 q 364 -18 490 -18 m 290 -318 l 313 -83 l 422 -83 l 374 -318 l 290 -318 z "},"Ț":{"ha":763,"x_min":42,"x_max":721,"o":"m 42 972 l 721 972 l 721 869 l 438 869 l 438 0 l 428 0 l 406 -253 l 303 -253 l 336 0 l 325 0 l 325 869 l 42 869 l 42 972 z "},"ț":{"ha":600,"x_min":56,"x_max":524,"o":"m 524 629 l 301 629 l 301 207 q 327 122 301 149 q 410 96 353 96 l 514 96 l 514 0 l 413 0 l 390 -253 l 288 -253 l 322 11 q 192 206 192 50 l 192 629 l 56 629 l 56 722 l 199 722 l 199 932 l 301 932 l 301 722 l 524 722 l 524 629 z "},"ȷ":{"ha":458,"x_min":21,"x_max":347,"o":"m 21 -319 l 21 -222 l 129 -222 q 212 -197 186 -222 q 238 -112 238 -171 l 238 629 l 81 629 l 81 722 l 347 722 l 347 -114 q 128 -319 347 -319 l 21 -319 z "},"ˆ":{"ha":517,"x_min":69,"x_max":447,"o":"m 69 847 l 200 1028 l 317 1028 l 447 847 l 344 847 l 263 947 l 254 947 l 174 847 l 69 847 z "},"ˇ":{"ha":517,"x_min":69,"x_max":447,"o":"m 200 847 l 69 1028 l 174 1028 l 254 928 l 263 928 l 344 1028 l 447 1028 l 317 847 l 200 847 z "},"˘":{"ha":492,"x_min":69,"x_max":422,"o":"m 376 895 q 353 870 376 895 q 246 846 331 846 q 115 895 161 846 q 69 1021 69 944 l 157 1021 q 246 922 157 922 q 313 949 292 922 q 335 1021 335 976 l 422 1021 q 376 895 422 944 z "},"˙":{"ha":299,"x_min":69,"x_max":229,"o":"m 206 876 q 195 864 206 876 q 149 853 183 853 q 92 876 114 853 q 69 933 69 899 q 92 990 69 967 q 149 1013 114 1013 q 206 990 183 1013 q 229 933 229 967 q 206 876 229 899 z "},"˚":{"ha":389,"x_min":67,"x_max":322,"o":"m 286 848 q 268 830 286 848 q 194 813 250 813 q 103 848 139 813 q 67 936 67 883 q 103 1025 67 990 q 193 1060 139 1060 q 286 1025 250 1060 q 322 938 322 990 q 286 848 322 883 m 153 894 q 161 887 153 894 q 194 879 168 879 q 235 894 221 879 q 250 938 250 910 q 235 978 250 963 q 193 993 219 993 q 153 978 168 993 q 139 936 139 963 q 153 894 139 910 z "},"˛":{"ha":336,"x_min":69,"x_max":267,"o":"m 200 -253 q 108 -224 147 -253 q 69 -142 69 -194 q 115 -44 69 -87 l 161 0 l 267 0 l 197 -69 q 169 -122 169 -97 q 221 -164 169 -164 l 267 -164 l 267 -253 l 200 -253 z "},"˜":{"ha":582,"x_min":69,"x_max":513,"o":"m 381 853 q 286 891 342 853 q 206 929 231 929 q 153 854 153 929 l 69 854 q 107 974 69 931 q 204 1018 144 1018 q 299 981 242 1018 q 378 943 356 943 q 431 1018 431 943 l 513 1018 q 476 897 513 942 q 381 853 439 853 z "},"˝":{"ha":546,"x_min":69,"x_max":476,"o":"m 69 847 l 153 1044 l 281 1044 l 157 847 l 69 847 m 265 847 l 349 1044 l 476 1044 l 353 847 l 265 847 z "},"̦":{"ha":0,"x_min":-201,"x_max":-69,"o":"m -201 -318 l -179 -83 l -69 -83 l -118 -318 l -201 -318 z "},"Ẁ":{"ha":1289,"x_min":28,"x_max":1261,"o":"m 625 1097 l 501 1282 l 629 1282 l 713 1097 l 625 1097 m 263 0 l 28 972 l 149 972 l 347 103 l 356 103 l 560 972 l 729 972 l 933 103 l 942 103 l 1140 972 l 1261 972 l 1026 0 l 849 0 l 649 869 l 640 869 l 440 0 l 263 0 z "},"ẁ":{"ha":1197,"x_min":42,"x_max":1156,"o":"m 581 847 l 457 1032 l 585 1032 l 668 847 l 581 847 m 267 0 l 42 722 l 161 722 l 338 103 l 346 103 l 522 722 l 675 722 l 850 103 l 858 103 l 1036 722 l 1156 722 l 929 0 l 776 0 l 603 619 l 594 619 l 419 0 l 267 0 z "},"Ẃ":{"ha":1289,"x_min":28,"x_max":1261,"o":"m 590 1097 l 674 1282 l 801 1282 l 678 1097 l 590 1097 m 263 0 l 28 972 l 149 972 l 347 103 l 356 103 l 560 972 l 729 972 l 933 103 l 942 103 l 1140 972 l 1261 972 l 1026 0 l 849 0 l 649 869 l 640 869 l 440 0 l 263 0 z "},"ẃ":{"ha":1197,"x_min":42,"x_max":1156,"o":"m 546 847 l 629 1032 l 757 1032 l 633 847 l 546 847 m 267 0 l 42 722 l 161 722 l 338 103 l 346 103 l 522 722 l 675 722 l 850 103 l 858 103 l 1036 722 l 1156 722 l 929 0 l 776 0 l 603 619 l 594 619 l 419 0 l 267 0 z "},"Ẅ":{"ha":1289,"x_min":28,"x_max":1261,"o":"m 526 1114 q 475 1135 496 1114 q 454 1186 454 1156 q 475 1238 454 1217 q 526 1258 496 1258 q 578 1238 558 1258 q 599 1186 599 1217 q 578 1134 599 1154 q 526 1114 558 1114 m 760 1114 q 708 1134 728 1114 q 688 1186 688 1154 q 708 1238 688 1218 q 760 1258 728 1258 q 811 1238 790 1258 q 832 1186 832 1217 q 811 1135 832 1156 q 760 1114 790 1114 m 263 0 l 28 972 l 149 972 l 347 103 l 356 103 l 560 972 l 729 972 l 933 103 l 942 103 l 1140 972 l 1261 972 l 1026 0 l 849 0 l 649 869 l 640 869 l 440 0 l 263 0 z "},"ẅ":{"ha":1197,"x_min":42,"x_max":1156,"o":"m 482 864 q 431 885 451 864 q 410 936 410 906 q 431 988 410 967 q 482 1008 451 1008 q 534 988 514 1008 q 554 936 554 967 q 534 884 554 904 q 482 864 514 864 m 715 864 q 663 884 683 864 q 643 936 643 904 q 663 988 643 968 q 715 1008 683 1008 q 767 988 746 1008 q 788 936 788 967 q 767 885 788 906 q 715 864 746 864 m 267 0 l 42 722 l 161 722 l 338 103 l 346 103 l 522 722 l 675 722 l 850 103 l 858 103 l 1036 722 l 1156 722 l 929 0 l 776 0 l 603 619 l 594 619 l 419 0 l 267 0 z "},"Ỳ":{"ha":828,"x_min":28,"x_max":800,"o":"m 406 1097 l 282 1282 l 410 1282 l 493 1097 l 406 1097 m 358 0 l 358 429 l 28 972 l 154 972 l 407 540 l 415 540 l 668 972 l 800 972 l 469 429 l 469 0 l 358 0 z "},"ỳ":{"ha":772,"x_min":42,"x_max":731,"o":"m 372 847 l 249 1032 l 376 1032 l 460 847 l 372 847 m 83 -319 l 83 -219 l 164 -219 q 240 -199 213 -219 q 285 -135 268 -179 l 336 0 l 307 0 l 42 722 l 164 722 l 375 106 l 383 106 l 607 722 l 731 722 l 379 -183 q 299 -287 351 -254 q 160 -319 247 -319 l 83 -319 z "}," ":{"ha":654,"x_min":0,"x_max":0,"o":""}," ":{"ha":1310,"x_min":0,"x_max":0,"o":""}," ":{"ha":654,"x_min":0,"x_max":0,"o":""}," ":{"ha":1310,"x_min":0,"x_max":0,"o":""}," ":{"ha":436,"x_min":0,"x_max":0,"o":""}," ":{"ha":326,"x_min":0,"x_max":0,"o":""}," ":{"ha":218,"x_min":0,"x_max":0,"o":""}," ":{"ha":218,"x_min":0,"x_max":0,"o":""}," ":{"ha":163,"x_min":0,"x_max":0,"o":""}," ":{"ha":261,"x_min":0,"x_max":0,"o":""}," ":{"ha":72,"x_min":0,"x_max":0,"o":""},"‐":{"ha":549,"x_min":97,"x_max":451,"o":"m 97 367 l 97 469 l 451 469 l 451 367 l 97 367 z "},"‑":{"ha":549,"x_min":97,"x_max":451,"o":"m 97 367 l 97 469 l 451 469 l 451 367 l 97 367 z "},"‒":{"ha":549,"x_min":97,"x_max":451,"o":"m 97 367 l 97 469 l 451 469 l 451 367 l 97 367 z "},"–":{"ha":914,"x_min":97,"x_max":817,"o":"m 97 371 l 97 465 l 817 465 l 817 371 l 97 371 z "},"—":{"ha":1282,"x_min":97,"x_max":1185,"o":"m 97 371 l 97 465 l 1185 465 l 1185 371 l 97 371 z "},"‘":{"ha":342,"x_min":97,"x_max":244,"o":"m 97 689 l 154 972 l 244 972 l 221 689 l 97 689 z "},"’":{"ha":342,"x_min":97,"x_max":244,"o":"m 97 689 l 121 972 l 244 972 l 188 689 l 97 689 z "},"‚":{"ha":369,"x_min":97,"x_max":244,"o":"m 97 -154 l 121 129 l 244 129 l 188 -154 l 97 -154 z "},"“":{"ha":542,"x_min":97,"x_max":444,"o":"m 97 689 l 154 972 l 244 972 l 221 689 l 97 689 m 297 689 l 354 972 l 444 972 l 421 689 l 297 689 z "},"”":{"ha":542,"x_min":97,"x_max":444,"o":"m 97 689 l 121 972 l 244 972 l 188 689 l 97 689 m 297 689 l 321 972 l 444 972 l 388 689 l 297 689 z "},"„":{"ha":569,"x_min":97,"x_max":444,"o":"m 97 -154 l 121 129 l 244 129 l 188 -154 l 97 -154 m 297 -154 l 321 129 l 444 129 l 388 -154 l 297 -154 z "},"†":{"ha":599,"x_min":83,"x_max":515,"o":"m 243 0 l 243 633 l 83 633 l 83 731 l 243 731 l 243 972 l 353 972 l 353 731 l 515 731 l 515 633 l 353 633 l 353 0 l 243 0 z "},"‡":{"ha":599,"x_min":83,"x_max":515,"o":"m 243 0 l 243 254 l 83 254 l 83 351 l 243 351 l 243 621 l 83 621 l 83 718 l 243 718 l 243 972 l 351 972 l 351 718 l 515 718 l 515 621 l 351 621 l 351 351 l 515 351 l 515 254 l 351 254 l 351 0 l 243 0 z "},"•":{"ha":644,"x_min":83,"x_max":561,"o":"m 493 261 q 459 226 493 261 q 322 192 425 192 q 151 261 219 192 q 83 431 83 331 q 151 600 83 531 q 322 669 219 669 q 493 600 425 669 q 561 431 561 531 q 493 261 561 331 z "},"…":{"ha":1022,"x_min":111,"x_max":911,"o":"m 245 5 q 234 -7 245 5 q 190 -18 222 -18 q 135 5 158 -18 q 111 60 111 28 q 135 115 111 92 q 190 138 158 138 q 245 115 222 138 q 268 60 268 92 q 245 5 268 28 m 567 5 q 555 -7 567 5 q 511 -18 543 -18 q 456 5 479 -18 q 433 60 433 28 q 456 115 433 92 q 511 138 479 138 q 567 115 543 138 q 590 60 590 92 q 567 5 590 28 m 888 5 q 877 -7 888 5 q 833 -18 865 -18 q 778 5 801 -18 q 754 60 754 28 q 778 115 754 92 q 833 138 801 138 q 888 115 865 138 q 911 60 911 92 q 888 5 911 28 z "}," ":{"ha":261,"x_min":0,"x_max":0,"o":""},"‰":{"ha":1638,"x_min":97,"x_max":1540,"o":"m 311 565 q 158 626 219 565 q 97 776 97 688 q 158 928 97 865 q 310 990 219 990 q 467 928 404 990 q 529 776 529 867 q 467 626 529 688 q 311 565 404 565 m 140 0 l 881 972 l 994 972 l 253 0 l 140 0 m 313 651 q 401 688 368 651 q 435 776 435 724 q 400 867 435 831 q 311 904 365 904 q 224 867 258 904 q 190 776 190 831 q 225 688 190 724 q 313 651 260 651 m 819 -18 q 665 42 726 -18 q 604 193 604 103 q 665 344 604 282 q 818 407 726 407 q 974 345 911 407 q 1036 193 1036 283 q 974 43 1036 104 q 819 -18 911 -18 m 1478 43 q 1447 13 1478 43 q 1322 -18 1415 -18 q 1168 42 1229 -18 q 1107 193 1107 103 q 1169 344 1107 282 q 1321 407 1231 407 q 1478 345 1415 407 q 1540 193 1540 283 q 1478 43 1540 104 m 819 67 q 908 103 875 67 q 942 193 942 139 q 908 283 942 247 q 818 319 874 319 q 731 283 765 319 q 697 193 697 247 q 731 103 697 139 q 819 67 765 67 m 1235 103 q 1252 85 1235 103 q 1324 67 1269 67 q 1412 103 1378 67 q 1446 193 1446 139 q 1411 283 1446 247 q 1321 319 1376 319 q 1234 283 1268 319 q 1200 193 1200 247 q 1235 103 1200 139 z "},"‹":{"ha":460,"x_min":90,"x_max":369,"o":"m 263 151 l 90 396 l 90 415 l 263 661 l 369 661 l 197 410 l 197 401 l 369 151 l 263 151 z "},"›":{"ha":460,"x_min":90,"x_max":369,"o":"m 90 151 l 263 401 l 263 410 l 90 661 l 197 661 l 369 415 l 369 396 l 197 151 l 90 151 z "},"⁄":{"ha":669,"x_min":14,"x_max":656,"o":"m 14 -57 l 554 1029 l 656 1029 l 115 -57 l 14 -57 z "}," ":{"ha":326,"x_min":0,"x_max":0,"o":""},"€":{"ha":872,"x_min":28,"x_max":733,"o":"m 419 883 q 274 825 332 883 q 217 675 217 767 l 217 615 l 494 615 l 494 531 l 217 531 l 217 408 l 494 408 l 494 324 l 217 324 l 217 297 q 274 147 217 206 q 419 89 331 89 q 565 148 508 89 q 622 297 622 207 l 733 297 l 733 290 q 640 67 733 151 q 419 -18 546 -18 q 199 67 293 -18 q 106 290 106 151 l 106 324 l 28 324 l 28 408 l 106 408 l 106 531 l 28 531 l 28 615 l 106 615 l 106 682 q 199 906 106 821 q 419 990 293 990 q 641 906 549 990 q 733 682 733 821 l 733 675 l 622 675 q 567 824 622 765 q 419 883 513 883 z "},"№":{"ha":1629,"x_min":139,"x_max":1518,"o":"m 1448 567 q 1413 532 1448 567 q 1271 496 1378 496 q 1094 567 1164 496 q 1024 742 1024 639 q 1094 917 1024 844 q 1271 990 1164 990 q 1448 917 1378 990 q 1518 742 1518 844 q 1448 567 1518 639 m 139 0 l 139 972 l 251 972 l 763 211 l 771 211 l 771 972 l 882 972 l 882 0 l 771 0 l 260 772 l 251 772 l 251 0 l 139 0 m 1160 632 q 1181 610 1160 632 q 1271 588 1201 588 q 1382 632 1340 588 q 1424 742 1424 676 q 1382 853 1424 807 q 1271 899 1340 899 q 1160 853 1201 899 q 1118 742 1118 807 q 1160 632 1118 676 m 1043 317 l 1043 419 l 1497 419 l 1497 317 l 1043 317 z "},"™":{"ha":1133,"x_min":83,"x_max":1050,"o":"m 213 472 l 213 894 l 83 894 l 83 972 l 425 972 l 425 894 l 296 894 l 296 472 l 213 472 m 506 472 l 506 972 l 649 972 l 774 550 l 782 550 l 907 972 l 1050 972 l 1050 472 l 969 472 l 969 894 l 961 894 l 835 472 l 721 472 l 594 894 l 586 894 l 586 472 l 506 472 z "},"←":{"ha":1131,"x_min":69,"x_max":1061,"o":"m 1061 428 l 242 428 l 242 419 l 557 108 l 479 31 l 69 439 l 69 525 l 479 933 l 557 856 l 242 544 l 242 538 l 1061 538 l 1061 428 z "},"↑":{"ha":1042,"x_min":69,"x_max":972,"o":"m 894 504 l 583 819 l 575 819 l 575 0 l 465 0 l 465 819 l 458 819 l 147 504 l 69 582 l 478 992 l 564 992 l 972 582 l 894 504 z "},"→":{"ha":1131,"x_min":69,"x_max":1061,"o":"m 651 933 l 1061 525 l 1061 439 l 651 31 l 574 108 l 889 419 l 889 428 l 69 428 l 69 538 l 889 538 l 889 544 l 574 856 l 651 933 z "},"↓":{"ha":1042,"x_min":69,"x_max":972,"o":"m 894 488 l 972 410 l 564 0 l 478 0 l 69 410 l 147 488 l 458 172 l 465 172 l 465 992 l 575 992 l 575 172 l 583 172 l 894 488 z "},"↖":{"ha":910,"x_min":69,"x_max":840,"o":"m 763 201 l 183 781 l 178 775 l 181 332 l 71 332 l 69 911 l 131 972 l 708 971 l 708 861 l 267 864 l 261 858 l 840 279 l 763 201 z "},"↗":{"ha":910,"x_min":69,"x_max":840,"o":"m 779 972 l 840 911 l 839 332 l 729 332 l 732 775 l 726 781 l 147 201 l 69 279 l 649 858 l 643 864 l 201 861 l 201 971 l 779 972 z "},"↘":{"ha":910,"x_min":69,"x_max":840,"o":"m 839 639 l 840 60 l 779 -1 l 201 0 l 201 110 l 643 107 l 649 113 l 69 692 l 147 769 l 726 190 l 732 196 l 729 639 l 839 639 z "},"↙":{"ha":910,"x_min":69,"x_max":840,"o":"m 261 113 l 267 107 l 708 110 l 708 0 l 131 -1 l 69 60 l 71 639 l 181 639 l 178 196 l 183 190 l 763 769 l 840 692 l 261 113 z "},"−":{"ha":667,"x_min":7,"x_max":660,"o":"m 7 386 l 7 479 l 660 479 l 660 386 l 7 386 z "},"◼":{"ha":722,"x_min":0,"x_max":722,"o":"m 0 722 l 722 722 l 722 0 l 0 0 l 0 722 z "}}}
